<?xml version="1.0" encoding="UTF-8" standalone="no"?>
<!-- Created with Inkscape (http://www.inkscape.org/) -->

<svg
   width="65.277145mm"
   height="51.108852mm"
   viewBox="0 0 246.71678 193.16732"
   version="1.1"
   id="svg1"
   xml:space="preserve"
   xmlns:xlink="http://www.w3.org/1999/xlink"
   xmlns="http://www.w3.org/2000/svg"
   xmlns:svg="http://www.w3.org/2000/svg"><defs
     id="defs1"><linearGradient
       id="linearGradient63"><stop
         style="stop-color:#691d18;stop-opacity:1;"
         offset="0"
         id="stop62" /><stop
         style="stop-color:#000000;stop-opacity:1;"
         offset="1"
         id="stop63" /></linearGradient><linearGradient
       id="linearGradient61"><stop
         style="stop-color:#691d18;stop-opacity:1;"
         offset="0.56112856"
         id="stop60" /><stop
         style="stop-color:#000002;stop-opacity:1;"
         offset="0.66144198"
         id="stop61" /></linearGradient><linearGradient
       xlink:href="#linearGradient61"
       id="linearGradient55"
       gradientUnits="userSpaceOnUse"
       gradientTransform="translate(-85.14848,-111.26349)"
       x1="213.64563"
       y1="215.25401"
       x2="252.72015"
       y2="295.36865" /><linearGradient
       xlink:href="#linearGradient63"
       id="linearGradient56"
       gradientUnits="userSpaceOnUse"
       gradientTransform="translate(-69.1057,-106.50925)"
       x1="212.93333"
       y1="261.36523"
       x2="282.24103"
       y2="261.36523" /></defs><g
     id="g116"
     style="display:inline"
     transform="matrix(1.398872,0,0,1.398872,-51.432286,-49.753735)"><path
       style="display:inline;fill:#b56964;fill-opacity:1;stroke-width:0.264999"
       d="m 36.766971,173.64443 85.222589,-0.0168 c 0,0 45.87066,-17.27028 90.96243,-49.41904 l 0.13229,-88.641551 c 0,0 -49.80987,79.625101 -176.317309,138.077391 z"
       id="path1-7-1-0-9-6" /><path
       style="display:inline;fill:url(#linearGradient55);stroke-width:0.264999"
       d="m 68.299091,173.65296 55.003799,0.002 c 0,0 45.39857,-17.70757 89.6553,-47.76876 V 75.366729 c 0,0 -39.86249,51.524811 -144.659099,98.286641 z"
       id="path2-6-1-9-1-1" /><path
       style="fill:url(#linearGradient56);stroke-width:0.264999"
       d="m 143.82763,173.64421 h 69.30771 v -37.57648 c 0,0 -24.21595,20.0408 -69.30771,37.57648 z"
       id="path3-3-0-3-8" /><path
       style="fill:#691d18;fill-opacity:1;stroke-width:0.264999"
       d="m 182.65664,173.64421 h 30.4787 v -13.36053 c 0,0 -9.18536,6.26274 -30.4787,13.36053 z"
       id="path4-8-0-5-9" /></g></svg>
