<?xml version="1.0" encoding="UTF-8" standalone="no"?>
<!-- Created with Inkscape (http://www.inkscape.org/) -->

<svg
   width="39.120052mm"
   height="55.932938mm"
   viewBox="0 0 147.85532 211.40009"
   version="1.1"
   id="svg1"
   xml:space="preserve"
   xmlns:xlink="http://www.w3.org/1999/xlink"
   xmlns="http://www.w3.org/2000/svg"
   xmlns:svg="http://www.w3.org/2000/svg"><defs
     id="defs1"><linearGradient
       id="linearGradient50"><stop
         style="stop-color:#1b3b82;stop-opacity:1;"
         offset="0"
         id="stop49" /><stop
         style="stop-color:#a0a0a0;stop-opacity:1;"
         offset="1"
         id="stop50" /></linearGradient><linearGradient
       id="linearGradient48"><stop
         style="stop-color:#1b3b82;stop-opacity:1;"
         offset="0"
         id="stop47" /><stop
         style="stop-color:#000000;stop-opacity:1;"
         offset="1"
         id="stop48" /></linearGradient><linearGradient
       xlink:href="#linearGradient48"
       id="linearGradient41"
       gradientUnits="userSpaceOnUse"
       gradientTransform="translate(484.37116,-250.89634)"
       x1="272.26123"
       y1="415.64471"
       x2="460.83563"
       y2="415.64471" /><linearGradient
       xlink:href="#linearGradient50"
       id="linearGradient43"
       gradientUnits="userSpaceOnUse"
       gradientTransform="matrix(0.6295082,0,0,0.71706264,-342.32368,21.735638)"
       x1="931.4895"
       y1="589.66455"
       x2="839.96472"
       y2="378.73523" /></defs><g
     id="layer1-5-8-4-7-5"
     transform="scale(0.37011824)"
     style="display:inline"><g
       id="g8-8-4-6-9-3-7"
       transform="matrix(-1,0,0,1,945.22267,-53.723821)"><path
         style="display:inline;fill:#1b3b82;fill-opacity:1"
         d="M 545.74135,53.723821 H 945.20671 V 369.50223 c 0,0 -91.4977,-191.92186 -399.46536,-315.778409 z"
         id="path2-3-0-6-3-9" /><path
         style="fill:url(#linearGradient41)"
         d="M 756.6324,53.723821 H 945.20671 V 275.77295 c 0,0 -49.0962,-124.97238 -188.57431,-222.049129 z"
         id="path1-1-2-3-5-8" /></g><g
       id="g9-2-4-7-9-3"
       transform="matrix(-1,0,0,1,363.133,-66.357731)"><path
         style="fill:#1b3b82;fill-opacity:1;stroke-width:1.00157;stroke-dasharray:none"
         d="m 363.133,637.52679 c 0,0 -52.866,-259.64259 -340.36328,-521.36091 215.34631,87.40866 340.32658,304.62016 340.32658,304.62016 z"
         id="path5-3-8-8-9-0" /><path
         style="fill:url(#linearGradient43);stroke-width:0.67186"
         d="m 362.97357,588.45815 c 0,0 -33.13377,-184.26478 -214.11563,-371.93323 135.56227,62.67749 214.23836,218.43175 214.23836,218.43175 z"
         id="path5-5-3-6-8-8-2" /></g></g></svg>
