<?xml version="1.0" encoding="UTF-8" standalone="no"?>
<!-- Created with Inkscape (http://www.inkscape.org/) -->

<svg
   width="215.59651mm"
   height="35.79464mm"
   viewBox="0 0 814.85298 135.28683"
   version="1.1"
   id="svg1"
   xml:space="preserve"
   xmlns="http://www.w3.org/2000/svg"
   xmlns:svg="http://www.w3.org/2000/svg"><defs
     id="defs1" /><g
     id="g13"
     transform="translate(22.33203,-402.18399)"
     style="display:inline"><rect
       style="display:inline;fill:#de711e;fill-opacity:1;stroke-width:0.625734"
       id="rect4-9-3-4-4-7-1"
       width="3.3473034"
       height="135.28683"
       x="380.53171"
       y="402.18399" /><path
       style="font-style:italic;font-size:37.3333px;line-height:0.95;font-family:'Droid Serif';-inkscape-font-specification:'Droid Serif Italic';text-align:end;letter-spacing:-0.2px;text-anchor:end;white-space:pre;fill:#de711e;stroke-width:1.00157"
       d="m 362.7295,152.88297 h 0.49219 q 1.75,0 2.51562,-0.60156 0.76562,-0.60156 1.11198,-1.89583 l 3.91927,-18.48436 q 0.14583,-0.69271 0.14583,-1.03906 0,-1.49479 -2.69792,-1.49479 h -0.47395 l 0.32812,-1.56771 h 18.81249 l -1.1849,6.52604 h -1.95052 l 0.0729,-0.65625 q 0.0182,-0.34636 0.0547,-0.65625 0.0729,-0.61979 0.0729,-0.85677 0,-2.4974 -2.80729,-2.4974 h -6.12499 l -2.3151,10.79166 h 9.0052 l -0.38282,1.82292 h -8.98697 l -1.67708,7.92968 q -0.1276,0.60156 -0.1276,0.92968 0,1.75 2.58854,1.75 h 1.22135 l -0.29167,1.56771 h -11.61197 z m 34.45362,-4.0651 h -0.23698 q -2.67969,5.99739 -6.98177,5.99739 -2.27864,0 -3.55468,-1.78645 -1.25781,-1.80469 -1.25781,-5.03125 0,-5.14062 3.1901,-9.53385 3.20833,-4.39322 7.92968,-4.39322 2.53385,0 4.37499,1.34896 l 1.64063,-0.94792 h 1.20312 l -2.55208,11.95832 q -0.54687,2.57031 -0.54687,4.13802 0,1.89583 1.22135,1.89583 1.05729,0 2.69791,-0.96614 l 0.67448,1.09375 q -2.67968,2.22395 -5.26822,2.22395 -2.91667,0 -2.91667,-3.09895 0,-1.1849 0.38282,-2.89844 z m 2.11458,-11.72134 q -0.85677,-1.34896 -2.82552,-1.34896 -3.1901,0 -5.35937,4.0651 -2.15104,4.04687 -2.15104,8.33072 0,4.32031 2.35156,4.32031 1.85937,0 3.90104,-2.7526 2.04166,-2.7526 2.69791,-6.01562 z m 20.63592,12.68749 q 0.38281,0.23698 0.38281,0.92968 0,1.49479 -1.76823,2.80729 -1.75,1.29427 -4.70312,1.29427 -3.26302,0 -5.26822,-2.05989 -2.00521,-2.05989 -2.00521,-5.65104 0,-4.88541 3.15364,-8.95051 3.15364,-4.08333 7.96614,-4.08333 2.57031,0 4.01041,1.02083 1.44011,1.02083 1.44011,2.55208 0,1.13021 -0.91146,1.87761 -0.89323,0.74739 -2.40625,0.74739 0,-1.98698 -0.76562,-3.1901 -0.76563,-1.22135 -2.11458,-1.22135 -2.60677,0 -4.55729,3.90103 -1.93229,3.90104 -1.93229,7.63802 0,5.0677 4.10156,5.0677 3.26301,0 5.3776,-2.67968 z m 5.46926,-15.34895 h 6.94531 l -2.46094,11.17447 q -0.74739,3.39062 -0.74739,4.5026 0,2.27865 1.82291,2.27865 1.91407,0 4.11979,-2.75261 2.22396,-2.77083 2.89844,-5.90624 l 1.95052,-9.29687 h 3.60937 l -2.57031,11.99478 q -0.56511,2.64323 -0.56511,4.13802 0,1.89583 1.23959,1.89583 1.05729,0 2.38802,-0.82031 l 0.67447,1.09375 q -2.36979,2.07812 -4.73958,2.07812 -1.40364,0 -2.27864,-1.0026 -0.85677,-1.0026 -0.85677,-2.53385 0,-0.96615 0.18229,-2.20573 h -0.29166 q -2.02344,3.33594 -3.62761,4.52083 -1.58593,1.1849 -3.59114,1.1849 -3.99218,0 -3.99218,-4.13802 0,-1.1849 0.67448,-4.10156 l 1.45833,-6.54427 q 0.32812,-1.47656 0.32812,-2.22395 0,-1.76823 -2.60677,-1.76823 h -0.29166 z m 23.47967,-6.78124 0.32812,-1.56771 h 7.05469 l -4.32031,20.34373 q -0.56511,2.66146 -0.56511,4.13802 0,1.89583 1.23959,1.89583 1.07552,0 2.67968,-0.96614 l 0.67448,1.09375 q -2.58854,2.22395 -5.04948,2.22395 -1.34895,0 -2.22395,-0.98437 -0.85677,-0.98437 -0.85677,-2.55208 0,-1.76823 0.82031,-5.86979 l 3.04427,-14.32811 q 0.23698,-1.11198 0.23698,-1.67708 0,-1.75 -2.625,-1.75 z m 18.61248,23.98956 0.63802,1.38542 q -2.51562,1.78645 -5.03124,1.78645 -4.0651,0 -4.0651,-4.35676 0,-1.40365 0.36458,-3.13542 l 2.27864,-10.7552 h -2.84374 l 0.34635,-1.49479 q 3.64583,0 5.70572,-5.23176 h 1.71355 l -0.96615,4.59374 h 4.52083 l -0.45573,2.13281 h -4.52083 l -2.26041,10.64583 q -0.45573,2.15104 -0.45573,3.20833 0,2.04166 1.98698,2.04166 1.51301,0 3.04426,-0.82031 z m 15.95103,-2.82552 h -0.23698 q -2.67969,5.99739 -6.98177,5.99739 -2.27864,0 -3.55468,-1.78645 -1.25781,-1.80469 -1.25781,-5.03125 0,-5.14062 3.1901,-9.53385 3.20833,-4.39322 7.92968,-4.39322 2.53385,0 4.375,1.34896 l 1.64062,-0.94792 h 1.20312 l -2.55208,11.95832 q -0.54687,2.57031 -0.54687,4.13802 0,1.89583 1.22135,1.89583 1.05729,0 2.69792,-0.96614 l 0.67448,1.09375 q -2.67969,2.22395 -5.26823,2.22395 -2.91666,0 -2.91666,-3.09895 0,-1.1849 0.38281,-2.89844 z m 2.11458,-11.72134 q -0.85677,-1.34896 -2.82552,-1.34896 -3.1901,0 -5.35937,4.0651 -2.15104,4.04687 -2.15104,8.33072 0,4.32031 2.35156,4.32031 1.85938,0 3.90104,-2.7526 2.04167,-2.7526 2.69791,-6.01562 z m 19.3052,11.72134 h -0.23698 q -2.67969,5.99739 -6.98177,5.99739 -2.27864,0 -3.55468,-1.78645 -1.25781,-1.80469 -1.25781,-5.03125 0,-5.14062 3.1901,-9.53385 3.20833,-4.39322 7.92968,-4.39322 2.09635,0 3.66406,0.89323 0.29166,-1.71354 0.41927,-2.09635 l 0.36458,-1.78646 q 0.25521,-1.25781 0.25521,-1.67708 0,-1.75 -2.60677,-1.75 h -0.29167 l 0.32813,-1.56771 h 6.87239 l -4.33854,20.34373 q -0.54687,2.57031 -0.54687,4.13802 0,1.89583 1.22135,1.89583 1.05729,0 2.69791,-0.96614 l 0.67448,1.09375 q -2.67968,2.22395 -5.26822,2.22395 -2.91667,0 -2.91667,-3.09895 0,-1.1849 0.38282,-2.89844 z m 2.11458,-11.72134 q -0.85677,-1.34896 -2.82552,-1.34896 -3.1901,0 -5.35937,4.0651 -2.15104,4.04687 -2.15104,8.33072 0,4.32031 2.35156,4.32031 1.85937,0 3.90104,-2.7526 2.04166,-2.7526 2.69791,-6.01562 z m 28.80309,11.72134 h -0.23697 q -2.67969,5.99739 -6.98177,5.99739 -2.27864,0 -3.55468,-1.78645 -1.25782,-1.80469 -1.25782,-5.03125 0,-5.14062 3.19011,-9.53385 3.20833,-4.39322 7.92968,-4.39322 2.09635,0 3.66406,0.89323 0.29166,-1.71354 0.41927,-2.09635 l 0.36458,-1.78646 q 0.25521,-1.25781 0.25521,-1.67708 0,-1.75 -2.60677,-1.75 h -0.29167 l 0.32813,-1.56771 h 6.87239 l -4.33854,20.34373 q -0.54688,2.57031 -0.54688,4.13802 0,1.89583 1.22136,1.89583 1.05729,0 2.69791,-0.96614 l 0.67448,1.09375 q -2.67968,2.22395 -5.26822,2.22395 -2.91667,0 -2.91667,-3.09895 0,-1.1849 0.38281,-2.89844 z m 2.11459,-11.72134 q -0.85677,-1.34896 -2.82552,-1.34896 -3.1901,0 -5.35937,4.0651 -2.15104,4.04687 -2.15104,8.33072 0,4.32031 2.35156,4.32031 1.85937,0 3.90104,-2.7526 2.04166,-2.7526 2.69791,-6.01562 z m 20.63593,12.68749 q 0.38281,0.23698 0.38281,0.92968 0,1.49479 -1.76823,2.80729 -1.75,1.29427 -4.70312,1.29427 -3.26302,0 -5.26822,-2.05989 -2.00521,-2.05989 -2.00521,-5.65104 0,-4.88541 3.15364,-8.95051 3.15365,-4.08333 7.96614,-4.08333 2.36979,0 3.66406,1.13021 1.3125,1.1302 1.3125,3.15364 0,3.02604 -3.15364,5.26822 -3.13542,2.24219 -7.67448,2.24219 h -0.63802 q -0.32812,0 -0.67448,-0.0365 -0.0729,0.51042 -0.0729,1.56771 0,5.0677 4.10156,5.0677 3.1901,0 5.3776,-2.67968 z m -9.05989,-5.66927 h 0.36458 q 3.29948,0 5.43229,-1.60416 2.15104,-1.60417 2.15104,-4.15625 0,-2.49739 -2.16927,-2.49739 -1.80469,0 -3.37239,2.27864 -1.56771,2.26041 -2.40625,5.97916 z m 28.71195,8.47656 h 7.20052 q 3.15364,0 4.22916,-3.0625 l 0.58333,-1.60417 h 1.95052 l -1.64062,6.52604 h -20.01561 l 0.29167,-1.56771 h 0.49218 q 1.89584,0 2.625,-0.65625 0.7474,-0.67447 1.00261,-1.84114 l 3.8828,-18.33853 q 0.10938,-0.51041 0.10938,-0.89322 0,-0.875 -0.51042,-1.33073 -0.51041,-0.45573 -2.11458,-0.45573 h -0.47396 l 0.32813,-1.56771 h 18.81248 l -1.18489,6.52604 h -1.95052 l 0.10937,-1.14844 q 0.0911,-0.875 0.0911,-1.02083 0,-2.4974 -2.66146,-2.4974 h -6.27082 l -2.13282,9.93489 h 9.00521 l -0.36459,1.82292 h -9.0052 z m 29.78695,-3.77344 h -0.23698 q -2.67968,5.99739 -6.98176,5.99739 -2.27864,0 -3.55468,-1.78645 -1.25782,-1.80469 -1.25782,-5.03125 0,-5.14062 3.19011,-9.53385 3.20833,-4.39322 7.92968,-4.39322 2.09635,0 3.66406,0.89323 0.29166,-1.71354 0.41927,-2.09635 l 0.36458,-1.78646 q 0.25521,-1.25781 0.25521,-1.67708 0,-1.75 -2.60677,-1.75 h -0.29167 l 0.32813,-1.56771 h 6.87239 l -4.33854,20.34373 q -0.54688,2.57031 -0.54688,4.13802 0,1.89583 1.22136,1.89583 1.05729,0 2.69791,-0.96614 l 0.67448,1.09375 q -2.67968,2.22395 -5.26822,2.22395 -2.91667,0 -2.91667,-3.09895 0,-1.1849 0.38281,-2.89844 z m 2.11459,-11.72134 q -0.85677,-1.34896 -2.82552,-1.34896 -3.1901,0 -5.35937,4.0651 -2.15104,4.04687 -2.15104,8.33072 0,4.32031 2.35156,4.32031 1.85937,0 3.90104,-2.7526 2.04166,-2.7526 2.69791,-6.01562 z m 8.13071,-2.66146 h 6.94531 l -2.46094,11.17447 q -0.74739,3.39062 -0.74739,4.5026 0,2.27865 1.82291,2.27865 1.91407,0 4.11979,-2.75261 2.22396,-2.77083 2.89844,-5.90624 l 1.95052,-9.29687 h 3.60937 l -2.57031,11.99478 q -0.56511,2.64323 -0.56511,4.13802 0,1.89583 1.23959,1.89583 1.05729,0 2.38802,-0.82031 l 0.67447,1.09375 q -2.36979,2.07812 -4.73957,2.07812 -1.40365,0 -2.27865,-1.0026 -0.85677,-1.0026 -0.85677,-2.53385 0,-0.96615 0.18229,-2.20573 h -0.29166 q -2.02344,3.33594 -3.6276,4.52083 -1.58594,1.1849 -3.59115,1.1849 -3.99218,0 -3.99218,-4.13802 0,-1.1849 0.67448,-4.10156 l 1.45833,-6.54427 q 0.32812,-1.47656 0.32812,-2.22395 0,-1.76823 -2.60677,-1.76823 h -0.29166 z m 34.67236,15.34895 q 0.38281,0.23698 0.38281,0.92968 0,1.49479 -1.76822,2.80729 -1.75,1.29427 -4.70313,1.29427 -3.26301,0 -5.26822,-2.05989 -2.00521,-2.05989 -2.00521,-5.65104 0,-4.88541 3.15365,-8.95051 3.15364,-4.08333 7.96614,-4.08333 2.57031,0 4.01041,1.02083 1.4401,1.02083 1.4401,2.55208 0,1.13021 -0.91146,1.87761 -0.89322,0.74739 -2.40624,0.74739 0,-1.98698 -0.76563,-3.1901 -0.76562,-1.22135 -2.11458,-1.22135 -2.60677,0 -4.55729,3.90103 -1.93229,3.90104 -1.93229,7.63802 0,5.0677 4.10156,5.0677 3.26302,0 5.3776,-2.67968 z m 16.64373,-0.96615 h -0.23698 q -2.67968,5.99739 -6.98176,5.99739 -2.27865,0 -3.55469,-1.78645 -1.25781,-1.80469 -1.25781,-5.03125 0,-5.14062 3.1901,-9.53385 3.20833,-4.39322 7.92968,-4.39322 2.53385,0 4.375,1.34896 l 1.64062,-0.94792 h 1.20313 l -2.55209,11.95832 q -0.54687,2.57031 -0.54687,4.13802 0,1.89583 1.22135,1.89583 1.05729,0 2.69792,-0.96614 l 0.67448,1.09375 q -2.67969,2.22395 -5.26823,2.22395 -2.91666,0 -2.91666,-3.09895 0,-1.1849 0.38281,-2.89844 z m 2.11458,-11.72134 q -0.85677,-1.34896 -2.82552,-1.34896 -3.1901,0 -5.35937,4.0651 -2.15104,4.04687 -2.15104,8.33072 0,4.32031 2.35156,4.32031 1.85938,0 3.90104,-2.7526 2.04167,-2.7526 2.69792,-6.01562 z m 20.63595,12.68749 q 0.38281,0.23698 0.38281,0.92968 0,1.49479 -1.76823,2.80729 -1.75,1.29427 -4.70312,1.29427 -3.26302,0 -5.26822,-2.05989 -2.00521,-2.05989 -2.00521,-5.65104 0,-4.88541 3.15364,-8.95051 3.15365,-4.08333 7.96614,-4.08333 2.57031,0 4.01042,1.02083 1.4401,1.02083 1.4401,2.55208 0,1.13021 -0.91146,1.87761 -0.89323,0.74739 -2.40625,0.74739 0,-1.98698 -0.76562,-3.1901 -0.76563,-1.22135 -2.11458,-1.22135 -2.60677,0 -4.55729,3.90103 -1.93229,3.90104 -1.93229,7.63802 0,5.0677 4.10156,5.0677 3.26302,0 5.3776,-2.67968 z m 11.3755,-19.08592 q -2.09635,0 -2.09635,-2.04167 0,-1.18489 0.60156,-1.89583 0.61979,-0.72917 1.64062,-0.72917 2.09636,0 2.09636,2.0599 0,1.27604 -0.63802,1.95052 -0.61979,0.65625 -1.60417,0.65625 z m -6.05208,5.30468 0.32813,-1.56771 h 6.6901 l -2.53386,11.99478 q -0.5651,2.67969 -0.5651,4.13802 0,1.89583 1.23958,1.89583 1.07552,0 2.67969,-0.96614 l 0.67448,1.09375 q -2.58854,2.22395 -5.04948,2.22395 -1.38541,0 -2.24218,-1.0026 -0.85677,-1.0026 -0.85677,-2.53385 0,-1.67708 0.83854,-5.86979 l 1.4401,-6.85416 q 0.1276,-0.60156 0.1276,-0.98437 0,-1.56771 -2.27864,-1.56771 z m 21.56562,-1.93229 q 3.29947,0 5.19531,1.98698 1.89583,1.98697 1.89583,5.74218 0,4.97656 -3.04427,9.0052 -3.04427,4.01041 -8.0026,4.01041 -3.37239,0 -5.26822,-2.04166 -1.89583,-2.04167 -1.89583,-5.66927 0,-5.03124 3.06249,-9.02343 3.08073,-4.01041 8.05729,-4.01041 z m -3.53646,18.92186 q 3.08073,0 4.90364,-3.64583 1.84115,-3.66406 1.84115,-8.11197 0,-5.19531 -3.64583,-5.19531 -3.04427,0 -4.92187,3.66406 -1.87761,3.66406 -1.87761,8.14843 0,5.14062 3.70052,5.14062 z m 2.27865,-21.65623 q 2.13281,-2.46094 3.99218,-5.48698 h 3.99218 l -0.10937,0.38281 q -2.86198,3.33594 -6.48958,5.59635 h -1.49479 z m 14.89371,23.11456 h -3.48177 l 3.13541,-15.00259 q 0.21875,-1.03906 0.21875,-1.67708 0,-1.76823 -2.60676,-1.76823 h -0.29167 l 0.32812,-1.56771 h 6.90885 l -1.0026,4.70312 h 0.36458 q 3.02604,-5.03124 6.79948,-5.03124 3.99218,0 3.99218,4.13802 0,1.18489 -0.67448,4.10155 l -0.96614,4.41146 q -0.49219,2.24218 -0.49219,3.91927 0,1.78645 1.3125,1.78645 1.07552,0 2.38802,-0.85677 l 0.67448,1.09375 q -2.44271,2.11458 -4.55729,2.11458 -1.54948,0 -2.47917,-1.0026 -0.91145,-1.0026 -0.91145,-2.71614 0,-1.71354 0.71093,-5.04948 l 0.85677,-3.86458 q 0.54688,-2.26041 0.54688,-3.48177 0,-2.20572 -1.71354,-2.20572 -2.07813,0 -4.26562,2.80729 -2.16927,2.80729 -2.78906,5.59635 z"
       id="text1-5-1-6-2-7-6"
       transform="translate(-384.76984,329.4952)"
       aria-label="Facultad de Educación" /><g
       id="g4-4-6-1-3-5-6"
       style="display:inline;fill:#de711e;fill-opacity:1"
       transform="translate(-149.87234,95.020432)"><path
         style="font-size:37.3333px;line-height:0.95;font-family:'Droid Serif';-inkscape-font-specification:'Droid Serif';letter-spacing:-1px;white-space:pre;stroke-width:1.00157"
         d="m 171.94725,154.81526 q -2.20572,0 -3.95572,-0.45573 -1.75,-0.47395 -2.97135,-1.47656 -1.20313,-1.02083 -1.84115,-2.60677 -0.63802,-1.60416 -0.63802,-3.8828 v -14.49218 q 0,-0.82031 -0.25521,-1.3125 -0.23697,-0.51041 -0.65625,-0.78385 -0.41927,-0.27344 -0.98437,-0.34636 -0.54687,-0.0911 -1.16667,-0.0911 h -0.47395 v -1.56771 h 10.86457 v 1.56771 h -0.49219 q -0.61979,0 -1.18489,0.0911 -0.5651,0.0911 -0.98438,0.38282 -0.40104,0.27343 -0.65624,0.80208 -0.23698,0.52864 -0.23698,1.40364 v 14.5651 q 0,1.62239 0.45573,2.77083 0.47395,1.1302 1.29426,1.84114 0.83855,0.71094 1.96875,1.03906 1.14844,0.32813 2.51563,0.32813 1.62239,0 2.78906,-0.4375 1.18489,-0.4375 1.95052,-1.20313 0.78385,-0.78385 1.14843,-1.84114 0.38281,-1.07552 0.38281,-2.35156 v -14.85676 q 0,-0.82031 -0.2552,-1.3125 -0.23698,-0.51041 -0.65625,-0.78385 -0.41927,-0.27344 -0.98438,-0.34636 -0.54687,-0.0911 -1.16666,-0.0911 h -0.47396 v -1.56771 h 9.36978 v 1.56771 h -0.49218 q -0.6198,0 -1.1849,0.0911 -0.5651,0.0911 -0.98437,0.38282 -0.40104,0.27343 -0.65625,0.80208 -0.23698,0.52864 -0.23698,1.40364 v 14.78385 q 0,1.85937 -0.60156,3.35416 -0.58334,1.47656 -1.75,2.51562 -1.14844,1.02083 -2.86198,1.56771 -1.71354,0.54687 -3.9375,0.54687 z m 23.33592,-1.93229 v 1.56771 h -10.04426 v -1.56771 h 0.30989 q 0.63802,0 1.1849,-0.0911 0.5651,-0.0911 0.96614,-0.36459 0.41927,-0.29166 0.65625,-0.82031 0.25521,-0.52864 0.25521,-1.40364 V 138.5549 q 0,-0.82031 -0.25521,-1.3125 -0.23698,-0.51041 -0.65625,-0.78385 -0.41927,-0.27344 -0.98437,-0.36458 -0.54688,-0.0911 -1.16667,-0.0911 h -0.10937 v -1.56771 h 6.03385 l 0.49218,3.02604 h 0.1823 q 0.58333,-1.03906 1.22135,-1.69531 0.65625,-0.67448 1.36719,-1.03906 0.72916,-0.38281 1.53124,-0.51042 0.82032,-0.14583 1.71354,-0.14583 1.47657,0 2.625,0.4375 1.16667,0.41927 1.96875,1.3125 0.82031,0.875 1.23958,2.26041 0.4375,1.38542 0.4375,3.29948 v 8.82291 q 0,0.875 0.20052,1.40364 0.21875,0.52865 0.60157,0.82031 0.38281,0.27344 0.91145,0.36459 0.52865,0.0911 1.14844,0.0911 h 0.1276 v 1.56771 h -6.5078 v -12.88801 q 0,-1.22135 -0.21875,-2.16927 -0.21875,-0.94791 -0.71094,-1.60416 -0.47396,-0.65625 -1.25781,-0.98438 -0.78386,-0.34635 -1.91406,-0.34635 -1.27604,0 -2.15104,0.49219 -0.85677,0.49218 -1.38542,1.33072 -0.52864,0.83854 -0.76562,1.93229 -0.21875,1.09375 -0.21875,2.29688 v 7.87499 q 0,0.82031 0.23698,1.33073 0.2552,0.49218 0.67448,0.74739 0.41927,0.25521 0.96614,0.34636 0.5651,0.0729 1.1849,0.0729 z m 13.34634,0 q 0.61979,0 1.16667,-0.0729 0.5651,-0.0911 0.98437,-0.34636 0.41927,-0.25521 0.65625,-0.74739 0.25521,-0.51042 0.25521,-1.33073 v -11.83072 q 0,-0.82031 -0.25521,-1.3125 -0.23698,-0.51041 -0.65625,-0.78385 -0.41927,-0.27344 -0.98437,-0.36458 -0.54688,-0.0911 -1.16667,-0.0911 h -0.10937 v -1.56771 h 6.67187 v 15.76822 q 0,0.875 0.23698,1.40364 0.2552,0.52865 0.65625,0.82031 0.41927,0.27344 0.98437,0.36459 0.5651,0.0911 1.18489,0.0911 h 0.49219 v 1.56771 h -10.60936 v -1.56771 z m 2.53385,-24.49998 q 0,-0.65625 0.16407,-1.09374 0.16406,-0.4375 0.45573,-0.71094 0.29166,-0.27344 0.67447,-0.38281 0.38282,-0.10938 0.83855,-0.10938 0.4375,0 0.82031,0.10938 0.38281,0.10937 0.65625,0.38281 0.29166,0.27344 0.45573,0.71094 0.18229,0.43749 0.18229,1.09374 0,0.65625 -0.18229,1.09375 -0.16407,0.4375 -0.45573,0.71094 -0.27344,0.27344 -0.65625,0.40104 -0.38281,0.10938 -0.82031,0.10938 -0.45573,0 -0.83855,-0.10938 -0.38281,-0.1276 -0.67447,-0.40104 -0.29167,-0.27344 -0.45573,-0.71094 -0.16407,-0.4375 -0.16407,-1.09375 z m 7.20312,7.61979 v -1.56771 h 9.33333 v 1.56771 h -0.47396 q -1.13021,0 -1.69531,0.4375 -0.54688,0.4375 -0.54688,1.36719 0,0.30989 0.0729,0.63802 0.0729,0.30989 0.21875,0.72916 l 2.53385,7.05468 q 0.23698,0.65625 0.49219,1.45834 0.25521,0.78385 0.47396,1.54947 0.23698,0.76563 0.41927,1.45834 0.18229,0.67447 0.25521,1.14843 h 0.1276 q 0.0912,-0.40104 0.29167,-0.98437 0.21875,-0.60156 0.47396,-1.29427 0.27343,-0.71094 0.54687,-1.44011 0.29167,-0.72916 0.54687,-1.40364 l 2.67969,-7.27343 q 0.18229,-0.45573 0.25521,-0.875 0.0911,-0.41927 0.0911,-0.72917 0,-0.96614 -0.61979,-1.40364 -0.60156,-0.4375 -1.84114,-0.4375 h -0.27344 v -1.56771 h 8.0026 v 1.56771 h -0.45573 q -0.54688,0 -0.92969,0.1276 -0.38281,0.10938 -0.69271,0.4375 -0.30989,0.32813 -0.60156,0.89323 -0.27343,0.56511 -0.61979,1.45833 l -5.88801,15.53124 h -3.40886 l -5.99739,-16.46092 q -0.21875,-0.58334 -0.45572,-0.96615 -0.23698,-0.38281 -0.54688,-0.60156 -0.30989,-0.23698 -0.71094,-0.32812 -0.40104,-0.0911 -0.94791,-0.0911 z m 30.73696,0.0729 q -2.07813,0 -3.20833,1.69531 -1.11198,1.67708 -1.3125,4.92187 h 8.58593 q 0,-1.47656 -0.21875,-2.69792 -0.21875,-1.22135 -0.69271,-2.09635 -0.47396,-0.875 -1.25781,-1.34896 -0.76563,-0.47395 -1.89583,-0.47395 z m 0.45572,18.73956 q -2.02343,0 -3.64583,-0.67448 -1.60416,-0.6927 -2.71614,-2.0052 -1.11198,-1.3125 -1.71354,-3.20833 -0.58333,-1.91406 -0.58333,-4.33854 0,-5.23177 2.15104,-7.87499 2.15104,-2.64323 6.12499,-2.64323 1.80469,0 3.24479,0.5651 1.4401,0.56511 2.44271,1.69531 1.0026,1.11198 1.53125,2.78906 0.54687,1.65886 0.54687,3.86458 v 1.71354 h -12.43228 q 0.0365,2.04167 0.40104,3.51823 0.38281,1.45833 1.07552,2.40625 0.71094,0.94791 1.73177,1.40364 1.02083,0.4375 2.35156,0.4375 0.96615,0 1.78646,-0.21875 0.83854,-0.21875 1.51302,-0.58333 0.67448,-0.36458 1.18489,-0.82031 0.52865,-0.47396 0.85677,-0.98438 0.25521,0.10938 0.47396,0.45573 0.23698,0.34636 0.23698,0.82031 0,0.56511 -0.40104,1.22136 -0.40104,0.63802 -1.22136,1.18489 -0.82031,0.54688 -2.05989,0.91146 -1.22135,0.36458 -2.88021,0.36458 z m 20.27342,-0.36458 h -10.77343 v -1.56771 h 0.10938 q 0.63802,0 1.18489,-0.0911 0.56511,-0.0911 0.96615,-0.36459 0.41927,-0.29166 0.65625,-0.82031 0.25521,-0.52864 0.25521,-1.40364 v -11.64843 q 0,-0.82031 -0.25521,-1.3125 -0.23698,-0.51041 -0.65625,-0.78385 -0.41927,-0.27344 -0.98437,-0.36458 -0.54688,-0.0911 -1.16667,-0.0911 h -0.10938 v -1.56771 h 5.74219 l 0.71093,3.70052 h 0.1823 q 0.36458,-0.83854 0.74739,-1.56771 0.38281,-0.74739 0.92969,-1.29427 0.5651,-0.5651 1.38541,-0.875 0.82031,-0.32812 2.0599,-0.32812 2.04166,0 3.02604,0.71094 1.0026,0.71093 1.0026,2.0052 0,0.58334 -0.20052,1.07552 -0.18229,0.49219 -0.60156,0.85677 -0.41927,0.34636 -1.07552,0.54688 -0.65625,0.18229 -1.60417,0.18229 0,-1.54948 -0.4375,-2.22396 -0.4375,-0.69271 -1.53125,-0.69271 -0.6927,0 -1.23958,0.40105 -0.54687,0.38281 -0.96614,1.03906 -0.40105,0.63802 -0.69271,1.47656 -0.27344,0.83854 -0.45573,1.73177 -0.16406,0.875 -0.23698,1.75 -0.0729,0.875 -0.0729,1.58593 v 5.86979 q 0,0.82031 0.23698,1.33073 0.25521,0.49218 0.67448,0.74739 0.41927,0.25521 0.96615,0.34636 0.5651,0.0729 1.18489,0.0729 h 1.03906 z m 12.41666,0.36458 q -1.40364,0 -2.55208,-0.2552 -1.13021,-0.23698 -1.93229,-0.72917 -0.80208,-0.51042 -1.23958,-1.23958 -0.4375,-0.7474 -0.4375,-1.73177 0,-0.7474 0.23698,-1.23958 0.2552,-0.51042 0.60156,-0.80209 0.36458,-0.29166 0.76562,-0.40104 0.41927,-0.1276 0.7474,-0.1276 0,0.98437 0.20052,1.84114 0.20052,0.85677 0.67448,1.51302 0.47396,0.63802 1.23958,1.02083 0.78385,0.36459 1.91406,0.36459 1.0026,0 1.76823,-0.23698 0.76562,-0.25521 1.27604,-0.69271 0.52864,-0.45573 0.80208,-1.07552 0.27344,-0.63802 0.27344,-1.38542 0,-0.6927 -0.21875,-1.18489 -0.20052,-0.51042 -0.72917,-0.94792 -0.51041,-0.4375 -1.40364,-0.89322 -0.89323,-0.45573 -2.24219,-1.03907 -1.4401,-0.63802 -2.51562,-1.22135 -1.05729,-0.60156 -1.75,-1.29427 -0.69271,-0.69271 -1.03906,-1.56771 -0.34635,-0.89322 -0.34635,-2.11458 0,-1.27604 0.49218,-2.26041 0.51042,-0.98438 1.44011,-1.64063 0.92968,-0.67447 2.22395,-1.02083 1.29427,-0.34635 2.88021,-0.34635 1.33073,0 2.35156,0.27343 1.02083,0.27344 1.71354,0.7474 0.69271,0.45573 1.03906,1.09375 0.34635,0.61979 0.34635,1.3125 0,1.02083 -0.71093,1.64062 -0.69271,0.60156 -1.98698,0.60156 0,-1.8776 -0.78385,-2.91666 -0.76563,-1.03906 -2.42448,-1.03906 -0.94792,0 -1.6224,0.21875 -0.67447,0.21875 -1.11197,0.61979 -0.41927,0.40104 -0.61979,0.94791 -0.20053,0.54688 -0.20053,1.20313 0,0.71094 0.25521,1.23958 0.25521,0.51042 0.80209,0.94792 0.5651,0.4375 1.4401,0.85677 0.89323,0.40104 2.13281,0.91145 1.47656,0.6198 2.53385,1.22136 1.05729,0.60156 1.73177,1.3125 0.69271,0.71093 1.02083,1.60416 0.32813,0.89323 0.32813,2.0599 0,1.45833 -0.52865,2.55208 -0.52864,1.09375 -1.49479,1.84114 -0.96614,0.72917 -2.33333,1.09375 -1.34896,0.36458 -3.00781,0.36458 z m 9.35416,-1.93229 q 0.61979,0 1.16666,-0.0729 0.56511,-0.0911 0.98438,-0.34636 0.41927,-0.25521 0.65625,-0.74739 0.2552,-0.51042 0.2552,-1.33073 v -11.83072 q 0,-0.82031 -0.2552,-1.3125 -0.23698,-0.51041 -0.65625,-0.78385 -0.41927,-0.27344 -0.98438,-0.36458 -0.54687,-0.0911 -1.16666,-0.0911 h -0.10938 v -1.56771 h 6.67187 v 15.76822 q 0,0.875 0.23698,1.40364 0.25521,0.52865 0.65625,0.82031 0.41927,0.27344 0.98437,0.36459 0.56511,0.0911 1.1849,0.0911 h 0.49219 v 1.56771 h -10.60937 v -1.56771 z m 2.53385,-24.49998 q 0,-0.65625 0.16406,-1.09374 0.16406,-0.4375 0.45573,-0.71094 0.29167,-0.27344 0.67448,-0.38281 0.38281,-0.10938 0.83854,-0.10938 0.4375,0 0.82031,0.10938 0.38281,0.10937 0.65625,0.38281 0.29167,0.27344 0.45573,0.71094 0.18229,0.43749 0.18229,1.09374 0,0.65625 -0.18229,1.09375 -0.16406,0.4375 -0.45573,0.71094 -0.27344,0.27344 -0.65625,0.40104 -0.38281,0.10938 -0.82031,0.10938 -0.45573,0 -0.83854,-0.10938 -0.38281,-0.1276 -0.67448,-0.40104 -0.29167,-0.27344 -0.45573,-0.71094 -0.16406,-0.4375 -0.16406,-1.09375 z m 25.94268,21.96613 q 0,0.82031 0.23698,1.33073 0.25521,0.49219 0.67448,0.76562 0.41927,0.27344 0.96615,0.36459 0.5651,0.0729 1.18489,0.0729 h 0.3099 v 1.56771 h -6.32552 l -0.40104,-3.35416 h -0.14583 q -0.41927,0.85677 -0.96615,1.54947 -0.52864,0.67448 -1.22135,1.16667 -0.69271,0.47396 -1.56771,0.72917 -0.875,0.27343 -1.96875,0.27343 -1.84114,0 -3.26301,-0.60156 -1.42188,-0.61979 -2.38802,-1.8776 -0.96615,-1.27604 -1.45833,-3.22656 -0.49219,-1.95052 -0.49219,-4.63021 0,-2.69791 0.49219,-4.66666 0.49218,-1.96875 1.45833,-3.24479 0.96614,-1.27604 2.38802,-1.8776 1.42187,-0.61979 3.26301,-0.61979 1.07552,0 1.95052,0.23698 0.875,0.23698 1.56771,0.67448 0.71094,0.4375 1.25781,1.03906 0.54688,0.60156 0.94792,1.33073 h 0.21875 q -0.0547,-0.91146 -0.10938,-1.71354 -0.0365,-0.69271 -0.0729,-1.36719 -0.0365,-0.69271 -0.0365,-1.02083 v -3.0625 q 0,-0.82031 -0.25521,-1.3125 -0.23698,-0.51041 -0.65625,-0.78385 -0.41927,-0.27344 -0.98437,-0.34636 -0.54688,-0.0911 -1.16667,-0.0911 h -0.3099 v -1.56771 h 6.87239 z m -8.58593,2.07812 q 1.45834,0 2.42448,-0.47395 0.98438,-0.49219 1.56771,-1.47656 0.60156,-0.98438 0.83854,-2.47917 0.25521,-1.49479 0.25521,-3.51823 0,-1.95051 -0.25521,-3.4453 -0.23698,-1.4948 -0.83854,-2.4974 -0.58333,-1.02083 -1.56771,-1.54948 -0.98437,-0.52864 -2.46093,-0.52864 -1.22136,0 -2.09636,0.52864 -0.875,0.52865 -1.4401,1.54948 -0.54687,1.02083 -0.80208,2.53385 -0.25521,1.49479 -0.25521,3.44531 0,3.97396 1.07552,5.94271 1.07552,1.96874 3.55468,1.96874 z m 17.10156,-3.39062 q 0,1.75 0.72916,2.625 0.7474,0.85677 2.29688,0.85677 1.1302,0 2.04166,-0.36458 0.92969,-0.36459 1.56771,-1.03906 0.65625,-0.67448 1.0026,-1.64063 0.34635,-0.96614 0.34635,-2.15104 v -3.02604 l -2.38801,0.10938 q -1.58594,0.0729 -2.66146,0.40104 -1.05729,0.3099 -1.71354,0.89323 -0.65625,0.5651 -0.94792,1.40364 -0.27343,0.83854 -0.27343,1.93229 z m 4.52083,-13.10676 q -1.07552,0 -1.75,0.3099 -0.65625,0.29166 -1.03906,0.83854 -0.36459,0.54687 -0.49219,1.29427 -0.12761,0.74739 -0.12761,1.62239 -1.54947,0 -2.36979,-0.52864 -0.80208,-0.52865 -0.80208,-1.82292 0,-0.96614 0.52865,-1.64062 0.52864,-0.67448 1.4401,-1.09375 0.92969,-0.4375 2.15104,-0.63802 1.22135,-0.20052 2.60677,-0.20052 1.71354,0 2.98958,0.34635 1.27604,0.32813 2.13281,1.09375 0.85677,0.76563 1.27604,2.00521 0.4375,1.22135 0.4375,3.00781 v 9.67968 q 0,0.78385 0.1276,1.29427 0.12761,0.51041 0.40105,0.82031 0.27343,0.3099 0.71093,0.4375 0.45573,0.1276 1.07552,0.1276 h 0.10938 v 1.56771 h -5.04948 l -0.58333,-3.20833 h -0.3099 q -0.58333,0.78385 -1.1302,1.4401 -0.54688,0.65625 -1.20313,1.13021 -0.65625,0.47396 -1.49479,0.72917 -0.82031,0.27343 -1.98697,0.27343 -1.23959,0 -2.31511,-0.36458 -1.05729,-0.34635 -1.84114,-1.07552 -0.76563,-0.74739 -1.20313,-1.85937 -0.4375,-1.13021 -0.4375,-2.66146 0,-2.97135 2.11459,-4.41145 2.11458,-1.44011 6.39843,-1.56771 l 3.09895,-0.10938 v -2.24218 q 0,-1.0026 -0.10937,-1.84115 -0.10938,-0.85677 -0.47396,-1.45833 -0.36458,-0.61979 -1.05729,-0.94791 -0.67448,-0.34636 -1.82291,-0.34636 z m 28.8958,14.41926 q 0,0.82031 0.23697,1.33073 0.25521,0.49219 0.67448,0.76562 0.41927,0.27344 0.96615,0.36459 0.5651,0.0729 1.18489,0.0729 h 0.3099 v 1.56771 h -6.32552 l -0.40104,-3.35416 h -0.14583 q -0.41927,0.85677 -0.96615,1.54947 -0.52864,0.67448 -1.22135,1.16667 -0.69271,0.47396 -1.56771,0.72917 -0.875,0.27343 -1.96874,0.27343 -1.84115,0 -3.26302,-0.60156 -1.42188,-0.61979 -2.38802,-1.8776 -0.96615,-1.27604 -1.45833,-3.22656 -0.49219,-1.95052 -0.49219,-4.63021 0,-2.69791 0.49219,-4.66666 0.49218,-1.96875 1.45833,-3.24479 0.96614,-1.27604 2.38802,-1.8776 1.42187,-0.61979 3.26302,-0.61979 1.07552,0 1.95051,0.23698 0.875,0.23698 1.56771,0.67448 0.71094,0.4375 1.25781,1.03906 0.54688,0.60156 0.94792,1.33073 h 0.21875 q -0.0547,-0.91146 -0.10938,-1.71354 -0.0365,-0.69271 -0.0729,-1.36719 -0.0365,-0.69271 -0.0365,-1.02083 v -3.0625 q 0,-0.82031 -0.25521,-1.3125 -0.23698,-0.51041 -0.65625,-0.78385 -0.41927,-0.27344 -0.98437,-0.34636 -0.54688,-0.0911 -1.16667,-0.0911 h -0.30989 v -1.56771 h 6.87239 z m -8.58593,2.07812 q 1.45833,0 2.42447,-0.47395 0.98438,-0.49219 1.56771,-1.47656 0.60156,-0.98438 0.83854,-2.47917 0.25521,-1.49479 0.25521,-3.51823 0,-1.95051 -0.25521,-3.4453 -0.23698,-1.4948 -0.83854,-2.4974 -0.58333,-1.02083 -1.56771,-1.54948 -0.98437,-0.52864 -2.46093,-0.52864 -1.22136,0 -2.09636,0.52864 -0.87499,0.52865 -1.4401,1.54948 -0.54687,1.02083 -0.80208,2.53385 -0.25521,1.49479 -0.25521,3.44531 0,3.97396 1.07552,5.94271 1.07552,1.96874 3.55469,1.96874 z"
         id="text1-1-3-5-8-7-9-1"
         transform="translate(524.51137,201.99871)"
         aria-label="Universidad&#10;" /><path
         style="font-size:37.3333px;line-height:0.95;font-family:'Droid Serif';-inkscape-font-specification:'Droid Serif';letter-spacing:-2px;white-space:pre;stroke-width:1.00157"
         d="m 172.54882,127.41685 q 1.91406,0 3.3177,0.32812 1.42188,0.3099 2.35156,0.875 0.94792,0.56511 1.40365,1.33073 0.47395,0.76563 0.47395,1.65885 0,0.60157 -0.2552,1.09375 -0.23698,0.47396 -0.67448,0.82031 -0.4375,0.32813 -1.03906,0.51042 -0.58334,0.18229 -1.27604,0.18229 0,-0.875 -0.23698,-1.73177 -0.21875,-0.85677 -0.7474,-1.53125 -0.51041,-0.6927 -1.34896,-1.11197 -0.82031,-0.4375 -2.04166,-0.4375 -2.11458,0 -3.59114,0.78385 -1.47656,0.76562 -2.40625,2.26041 -0.92969,1.47657 -1.34896,3.66406 -0.41927,2.16927 -0.41927,4.97656 0,2.4974 0.4375,4.57552 0.4375,2.07812 1.38542,3.57291 0.94791,1.47656 2.40624,2.29688 1.47657,0.82031 3.53646,0.82031 1.36719,0 2.40625,-0.25521 1.05729,-0.27344 1.85937,-0.71094 0.80208,-0.4375 1.40365,-1.0026 0.61979,-0.58333 1.09374,-1.20312 0.3099,0.20052 0.51042,0.54687 0.20052,0.34635 0.20052,0.91146 0,0.71093 -0.49219,1.45833 -0.47395,0.72917 -1.45833,1.33073 -0.98437,0.60156 -2.49739,1.0026 -1.51302,0.38281 -3.59114,0.38281 -2.78906,0 -4.90365,-0.98437 -2.11458,-0.98437 -3.55468,-2.78906 -1.42187,-1.80469 -2.15104,-4.33854 -0.72917,-2.53385 -0.72917,-5.61458 0,-3.02604 0.76563,-5.54166 0.76562,-2.51562 2.26041,-4.32031 1.51302,-1.80468 3.75521,-2.80729 2.24218,-1.0026 5.19531,-1.0026 z m 12.29165,21.61977 q 0,1.75 0.72917,2.625 0.74739,0.85677 2.29687,0.85677 1.13021,0 2.04167,-0.36458 0.92968,-0.36459 1.5677,-1.03906 0.65625,-0.67448 1.00261,-1.64063 0.34635,-0.96614 0.34635,-2.15104 v -3.02604 l -2.38802,0.10938 q -1.58594,0.0729 -2.66146,0.40104 -1.05729,0.3099 -1.71354,0.89323 -0.65625,0.5651 -0.94791,1.40364 -0.27344,0.83854 -0.27344,1.93229 z m 4.52083,-13.10676 q -1.07552,0 -1.75,0.3099 -0.65625,0.29166 -1.03906,0.83854 -0.36458,0.54687 -0.49219,1.29427 -0.1276,0.74739 -0.1276,1.62239 -1.54948,0 -2.36979,-0.52864 -0.80208,-0.52865 -0.80208,-1.82292 0,-0.96614 0.52864,-1.64062 0.52865,-0.67448 1.44011,-1.09375 0.92968,-0.4375 2.15104,-0.63802 1.22135,-0.20052 2.60676,-0.20052 1.71354,0 2.98958,0.34635 1.27605,0.32813 2.13282,1.09375 0.85677,0.76563 1.27604,2.00521 0.4375,1.22135 0.4375,3.00781 v 9.67968 q 0,0.78385 0.1276,1.29427 0.1276,0.51041 0.40104,0.82031 0.27344,0.3099 0.71094,0.4375 0.45573,0.1276 1.07552,0.1276 h 0.10937 v 1.56771 h -5.04947 l -0.58334,-3.20833 h -0.30989 q -0.58333,0.78385 -1.13021,1.4401 -0.54687,0.65625 -1.20312,1.13021 -0.65625,0.47396 -1.49479,0.72917 -0.82031,0.27343 -1.98698,0.27343 -1.23958,0 -2.3151,-0.36458 -1.05729,-0.34635 -1.84115,-1.07552 -0.76562,-0.74739 -1.20312,-1.85937 -0.4375,-1.13021 -0.4375,-2.66146 0,-2.97135 2.11458,-4.41145 2.11458,-1.44011 6.39843,-1.56771 l 3.09896,-0.10938 v -2.24218 q 0,-1.0026 -0.10938,-1.84115 -0.10937,-0.85677 -0.47395,-1.45833 -0.36459,-0.61979 -1.05729,-0.94791 -0.67448,-0.34636 -1.82292,-0.34636 z m 18.90884,16.91666 q 0.67448,0 1.23958,-0.0729 0.5651,-0.0729 1.14844,-0.18229 v 1.64062 q -0.23698,0.10938 -0.6198,0.21875 -0.38281,0.10938 -0.83854,0.18229 -0.4375,0.0911 -0.92968,0.12761 -0.49219,0.0547 -0.92969,0.0547 -1.42187,0 -2.44271,-0.30989 -1.02083,-0.29167 -1.67708,-0.96615 -0.65625,-0.67448 -0.98437,-1.78645 -0.3099,-1.11198 -0.3099,-2.71615 v -12.46874 h -2.84375 v -1.49479 q 0.67448,0 1.47657,-0.27343 0.82031,-0.27344 1.4401,-0.91146 0.63802,-0.69271 1.02083,-1.64063 0.40104,-0.96614 0.69271,-2.40624 h 1.71354 v 4.59374 h 4.88541 v 2.13281 h -4.88541 V 149.146 q 0,1.91406 0.76562,2.80729 0.78386,0.89323 2.07813,0.89323 z m 20.73175,-8.4401 q 0,5.26822 -2.24219,7.83853 -2.22395,2.57031 -6.52603,2.57031 -2.02344,0 -3.6276,-0.63802 -1.60417,-0.63802 -2.73438,-1.93229 -1.11197,-1.29427 -1.71354,-3.24479 -0.58333,-1.96874 -0.58333,-4.59374 0,-5.23177 2.20573,-7.78385 2.22395,-2.55208 6.56249,-2.55208 2.02344,0 3.6276,0.63802 1.60417,0.61979 2.71615,1.91406 1.1302,1.27604 1.71354,3.22656 0.60156,1.93229 0.60156,4.55729 z m -13.8177,0 q 0,2.07812 0.27344,3.66406 0.27344,1.58593 0.875,2.66145 0.61979,1.05729 1.58594,1.60417 0.98437,0.54687 2.38801,0.54687 1.40365,0 2.36979,-0.54687 0.96615,-0.54688 1.56771,-1.60417 0.60156,-1.07552 0.85677,-2.66145 0.27344,-1.58594 0.27344,-3.66406 0,-2.07813 -0.27344,-3.64583 -0.27344,-1.56771 -0.875,-2.60677 -0.60156,-1.05729 -1.58593,-1.58594 -0.96615,-0.52864 -2.36979,-0.52864 -1.40365,0 -2.36979,0.52864 -0.96615,0.52865 -1.56771,1.58594 -0.60156,1.03906 -0.875,2.60677 -0.27344,1.5677 -0.27344,3.64583 z m 3.66406,-13.0703 q 0.41927,-0.52865 0.85677,-1.22136 0.45573,-0.6927 0.875,-1.42187 0.4375,-0.7474 0.82031,-1.47656 0.40104,-0.7474 0.69271,-1.36719 h 3.99219 v 0.38281 q -0.34636,0.49219 -1.02084,1.23959 -0.67448,0.72916 -1.49479,1.53125 -0.82031,0.80208 -1.69531,1.5677 -0.85677,0.7474 -1.60416,1.25781 h -1.42188 z m 11.17968,21.54685 q 0.63802,0 1.18489,-0.0911 0.56511,-0.0911 0.96615,-0.36459 0.41927,-0.29166 0.65625,-0.82031 0.25521,-0.52864 0.25521,-1.40364 v -20.01561 q 0,-0.82031 -0.25521,-1.3125 -0.23698,-0.51041 -0.65625,-0.78385 -0.41927,-0.27344 -0.98438,-0.34636 -0.54687,-0.0911 -1.16666,-0.0911 h -0.47396 v -1.56771 h 7.05468 v 24.11717 q 0,0.875 0.23698,1.40364 0.23698,0.52865 0.65625,0.82031 0.41927,0.27344 0.96614,0.36459 0.56511,0.0911 1.20313,0.0911 h 0.47396 v 1.56771 h -10.59114 v -1.56771 z m 9.95832,0 q 0.61979,0 1.16666,-0.0729 0.56511,-0.0911 0.98438,-0.34636 0.41927,-0.25521 0.65625,-0.74739 0.25521,-0.51042 0.25521,-1.33073 v -11.83072 q 0,-0.82031 -0.25521,-1.3125 -0.23698,-0.51041 -0.65625,-0.78385 -0.41927,-0.27344 -0.98438,-0.36458 -0.54687,-0.0911 -1.16666,-0.0911 h -0.10938 v -1.56771 h 6.67187 v 15.76822 q 0,0.875 0.23698,1.40364 0.25521,0.52865 0.65625,0.82031 0.41927,0.27344 0.98438,0.36459 0.5651,0.0911 1.18489,0.0911 h 0.49219 v 1.56771 h -10.60937 v -1.56771 z m 2.53385,-24.49998 q 0,-0.65625 0.16406,-1.09374 0.16406,-0.4375 0.45573,-0.71094 0.29167,-0.27344 0.67448,-0.38281 0.38281,-0.10938 0.83854,-0.10938 0.4375,0 0.82031,0.10938 0.38281,0.10937 0.65625,0.38281 0.29167,0.27344 0.45573,0.71094 0.18229,0.43749 0.18229,1.09374 0,0.65625 -0.18229,1.09375 -0.16406,0.4375 -0.45573,0.71094 -0.27344,0.27344 -0.65625,0.40104 -0.38281,0.10938 -0.82031,0.10938 -0.45573,0 -0.83854,-0.10938 -0.38281,-0.1276 -0.67448,-0.40104 -0.29167,-0.27344 -0.45573,-0.71094 -0.16406,-0.4375 -0.16406,-1.09375 z m 16.63019,26.43227 q -1.85937,0 -3.42708,-0.5651 -1.5677,-0.58333 -2.69791,-1.82292 -1.13021,-1.23958 -1.76823,-3.17187 -0.61979,-1.95052 -0.61979,-4.70312 0,-2.98958 0.61979,-4.99479 0.63802,-2.02343 1.75,-3.24478 1.13021,-1.22136 2.64323,-1.73177 1.53124,-0.51042 3.29947,-0.51042 1.16667,0 2.3151,0.23698 1.16667,0.21875 2.09636,0.69271 0.92968,0.47395 1.51302,1.20312 0.58333,0.71094 0.58333,1.67708 0,1.29427 -0.83854,1.82292 -0.83854,0.52864 -2.4974,0.52864 0,-0.875 -0.14583,-1.65885 -0.14583,-0.78385 -0.51042,-1.36719 -0.34635,-0.60156 -0.96614,-0.92968 -0.60156,-0.34636 -1.54948,-0.34636 -1.07552,0 -1.95052,0.40104 -0.85677,0.40105 -1.47656,1.38542 -0.61979,0.98437 -0.94791,2.64323 -0.32813,1.65885 -0.32813,4.15624 0,3.97396 1.3125,5.92448 1.33073,1.95052 4.33854,1.95052 1.73177,0 3.02604,-0.72917 1.29427,-0.72917 1.93229,-1.8776 0.27343,0.21875 0.45573,0.58333 0.18229,0.36458 0.18229,0.875 0,0.63802 -0.40104,1.27604 -0.40105,0.63802 -1.20313,1.14844 -0.78385,0.51041 -1.96875,0.82031 -1.18489,0.32812 -2.77083,0.32812 z m 11.28905,-5.77864 q 0,1.75 0.72917,2.625 0.7474,0.85677 2.29687,0.85677 1.13021,0 2.04167,-0.36458 0.92968,-0.36459 1.56771,-1.03906 0.65624,-0.67448 1.0026,-1.64063 0.34635,-0.96614 0.34635,-2.15104 v -3.02604 l -2.38802,0.10938 q -1.58593,0.0729 -2.66145,0.40104 -1.05729,0.3099 -1.71354,0.89323 -0.65625,0.5651 -0.94792,1.40364 -0.27344,0.83854 -0.27344,1.93229 z m 4.52083,-13.10676 q -1.07552,0 -1.74999,0.3099 -0.65625,0.29166 -1.03907,0.83854 -0.36458,0.54687 -0.49218,1.29427 -0.12761,0.74739 -0.12761,1.62239 -1.54948,0 -2.36979,-0.52864 -0.80208,-0.52865 -0.80208,-1.82292 0,-0.96614 0.52865,-1.64062 0.52864,-0.67448 1.4401,-1.09375 0.92969,-0.4375 2.15104,-0.63802 1.22135,-0.20052 2.60677,-0.20052 1.71354,0 2.98958,0.34635 1.27604,0.32813 2.13281,1.09375 0.85677,0.76563 1.27604,2.00521 0.4375,1.22135 0.4375,3.00781 v 9.67968 q 0,0.78385 0.1276,1.29427 0.12761,0.51041 0.40104,0.82031 0.27344,0.3099 0.71094,0.4375 0.45573,0.1276 1.07552,0.1276 h 0.10938 v 1.56771 h -5.04948 l -0.58333,-3.20833 h -0.3099 q -0.58333,0.78385 -1.1302,1.4401 -0.54688,0.65625 -1.20313,1.13021 -0.65625,0.47396 -1.49479,0.72917 -0.82031,0.27343 -1.98698,0.27343 -1.23958,0 -2.3151,-0.36458 -1.05729,-0.34635 -1.84114,-1.07552 -0.76563,-0.74739 -1.20313,-1.85937 -0.4375,-1.13021 -0.4375,-2.66146 0,-2.97135 2.11458,-4.41145 2.11459,-1.44011 6.39844,-1.56771 l 3.09895,-0.10938 v -2.24218 q 0,-1.0026 -0.10937,-1.84115 -0.10938,-0.85677 -0.47396,-1.45833 -0.36458,-0.61979 -1.05729,-0.94791 -0.67448,-0.34636 -1.82292,-0.34636 z m 35.59372,14.41926 q 0,0.82031 0.23698,1.33073 0.25521,0.49219 0.67448,0.76562 0.41927,0.27344 0.96614,0.36459 0.5651,0.0729 1.1849,0.0729 h 0.30989 v 1.56771 h -6.32551 l -0.40105,-3.35416 h -0.14583 q -0.41927,0.85677 -0.96614,1.54947 -0.52865,0.67448 -1.22136,1.16667 -0.6927,0.47396 -1.5677,0.72917 -0.875,0.27343 -1.96875,0.27343 -1.84115,0 -3.26302,-0.60156 -1.42187,-0.61979 -2.38802,-1.8776 -0.96614,-1.27604 -1.45833,-3.22656 -0.49219,-1.95052 -0.49219,-4.63021 0,-2.69791 0.49219,-4.66666 0.49219,-1.96875 1.45833,-3.24479 0.96615,-1.27604 2.38802,-1.8776 1.42187,-0.61979 3.26302,-0.61979 1.07552,0 1.95052,0.23698 0.875,0.23698 1.5677,0.67448 0.71094,0.4375 1.25782,1.03906 0.54687,0.60156 0.94791,1.33073 h 0.21875 q -0.0547,-0.91146 -0.10937,-1.71354 -0.0365,-0.69271 -0.0729,-1.36719 -0.0365,-0.69271 -0.0365,-1.02083 v -3.0625 q 0,-0.82031 -0.25521,-1.3125 -0.23698,-0.51041 -0.65625,-0.78385 -0.41927,-0.27344 -0.98437,-0.34636 -0.54688,-0.0911 -1.16667,-0.0911 h -0.30989 v -1.56771 h 6.87239 z m -8.58593,2.07812 q 1.45833,0 2.42448,-0.47395 0.98437,-0.49219 1.5677,-1.47656 0.60156,-0.98438 0.83854,-2.47917 0.25521,-1.49479 0.25521,-3.51823 0,-1.95051 -0.25521,-3.4453 -0.23698,-1.4948 -0.83854,-2.4974 -0.58333,-1.02083 -1.5677,-1.54948 -0.98438,-0.52864 -2.46094,-0.52864 -1.22135,0 -2.09635,0.52864 -0.875,0.52865 -1.44011,1.54948 -0.54687,1.02083 -0.80208,2.53385 -0.25521,1.49479 -0.25521,3.44531 0,3.97396 1.07552,5.94271 1.07552,1.96874 3.55469,1.96874 z m 20.87759,-16.35154 q -2.07813,0 -3.20833,1.69531 -1.11198,1.67708 -1.3125,4.92187 h 8.58593 q 0,-1.47656 -0.21875,-2.69792 -0.21875,-1.22135 -0.69271,-2.09635 -0.47396,-0.875 -1.25781,-1.34896 -0.76563,-0.47395 -1.89583,-0.47395 z m 0.45573,18.73956 q -2.02344,0 -3.64583,-0.67448 -1.60417,-0.6927 -2.71615,-2.0052 -1.11198,-1.3125 -1.71354,-3.20833 -0.58333,-1.91406 -0.58333,-4.33854 0,-5.23177 2.15104,-7.87499 2.15104,-2.64323 6.12499,-2.64323 1.80469,0 3.24479,0.5651 1.44011,0.56511 2.44271,1.69531 1.0026,1.11198 1.53125,2.78906 0.54687,1.65886 0.54687,3.86458 v 1.71354 H 318.2518 q 0.0365,2.04167 0.40104,3.51823 0.38281,1.45833 1.07552,2.40625 0.71094,0.94791 1.73177,1.40364 1.02083,0.4375 2.35156,0.4375 0.96615,0 1.78646,-0.21875 0.83854,-0.21875 1.51302,-0.58333 0.67448,-0.36458 1.18489,-0.82031 0.52865,-0.47396 0.85677,-0.98438 0.25521,0.10938 0.47396,0.45573 0.23698,0.34636 0.23698,0.82031 0,0.56511 -0.40104,1.22136 -0.40104,0.63802 -1.22135,1.18489 -0.82032,0.54688 -2.0599,0.91146 -1.22135,0.36458 -2.8802,0.36458 z m 29.06768,-27.39841 q 1.91406,0 3.31771,0.32812 1.42187,0.3099 2.35156,0.875 0.94791,0.56511 1.40364,1.33073 0.47396,0.76563 0.47396,1.65885 0,0.60157 -0.25521,1.09375 -0.23698,0.47396 -0.67448,0.82031 -0.4375,0.32813 -1.03906,0.51042 -0.58333,0.18229 -1.27604,0.18229 0,-0.875 -0.23698,-1.73177 -0.21875,-0.85677 -0.74739,-1.53125 -0.51042,-0.6927 -1.34896,-1.11197 -0.82031,-0.4375 -2.04167,-0.4375 -2.11458,0 -3.59114,0.78385 -1.47656,0.76562 -2.40625,2.26041 -0.92968,1.47657 -1.34895,3.66406 -0.41927,2.16927 -0.41927,4.97656 0,2.4974 0.4375,4.57552 0.4375,2.07812 1.38541,3.57291 0.94792,1.47656 2.40625,2.29688 1.47656,0.82031 3.53645,0.82031 1.36719,0 2.40625,-0.25521 1.05729,-0.27344 1.85938,-0.71094 0.80208,-0.4375 1.40364,-1.0026 0.61979,-0.58333 1.09375,-1.20312 0.30989,0.20052 0.51042,0.54687 0.20052,0.34635 0.20052,0.91146 0,0.71093 -0.49219,1.45833 -0.47396,0.72917 -1.45833,1.33073 -0.98438,0.60156 -2.4974,1.0026 -1.51302,0.38281 -3.59114,0.38281 -2.78906,0 -4.90364,-0.98437 -2.11458,-0.98437 -3.55469,-2.78906 -1.42187,-1.80469 -2.15104,-4.33854 -0.72916,-2.53385 -0.72916,-5.61458 0,-3.02604 0.76562,-5.54166 0.76563,-2.51562 2.26042,-4.32031 1.51302,-1.80468 3.7552,-2.80729 2.24219,-1.0026 5.19531,-1.0026 z m 26.47392,22.96873 q 0,0.82031 0.23698,1.33073 0.25521,0.49218 0.67448,0.74739 0.41927,0.25521 0.96615,0.34636 0.5651,0.0729 1.18489,0.0729 h 0.10938 v 1.56771 h -5.92448 l -0.49219,-3.02604 h -0.18229 q -0.5651,1.05729 -1.25781,1.71354 -0.67448,0.65625 -1.4401,1.03906 -0.76563,0.36459 -1.60417,0.49219 -0.83854,0.14583 -1.74999,0.14583 -1.47657,0 -2.625,-0.41927 -1.14844,-0.41927 -1.93229,-1.3125 -0.78386,-0.89322 -1.20313,-2.27864 -0.40104,-1.38542 -0.40104,-3.29948 v -8.95051 q 0,-0.82031 -0.25521,-1.3125 -0.23697,-0.51041 -0.65625,-0.78385 -0.41927,-0.27344 -0.98437,-0.36458 -0.54687,-0.0911 -1.16667,-0.0911 h -0.10937 v -1.56771 h 6.6901 v 12.88801 q 0,1.22136 0.18229,2.16927 0.20052,0.94792 0.63802,1.60417 0.45573,0.65625 1.20312,1.0026 0.76563,0.32812 1.89584,0.32812 1.23958,0 2.11458,-0.4375 0.89323,-0.43749 1.45833,-1.22135 0.58333,-0.80208 0.85677,-1.91406 0.27344,-1.11198 0.27344,-2.46093 v -7.69271 q 0,-0.875 -0.25521,-1.40364 -0.23698,-0.54688 -0.65625,-0.82031 -0.40104,-0.29167 -0.96615,-0.38281 -0.54687,-0.0911 -1.18489,-0.0911 h -0.10938 v -1.56771 h 6.67187 z m 23.11978,-15.95051 v 1.56771 h -0.10937 q -0.54688,0 -0.94792,0.1276 -0.38281,0.10938 -0.71093,0.4375 -0.3099,0.32813 -0.58334,0.89323 -0.27343,0.56511 -0.60156,1.45833 l -5.66926,15.67707 q -0.65625,1.80469 -1.23959,3.17188 -0.58333,1.36718 -1.22135,2.33333 -0.63802,0.98437 -1.40364,1.62239 -0.7474,0.63802 -1.71354,1.02083 -0.96615,0.38282 -2.22396,0.52865 -1.25781,0.14583 -2.91667,0.14583 h -0.32812 v -1.76822 q 1.89583,0 3.26302,-0.56511 1.36718,-0.5651 2.35156,-1.54948 1.0026,-0.98437 1.65885,-2.33333 0.67448,-1.33073 1.13021,-2.89843 l -6.90885,-16.31509 q -0.25521,-0.58334 -0.49219,-0.94792 -0.23698,-0.38281 -0.54687,-0.61979 -0.29167,-0.23698 -0.69271,-0.32812 -0.38281,-0.0911 -0.92969,-0.0911 h -0.10937 v -1.56771 h 8.96874 v 1.56771 h -0.10937 q -1.13021,0 -1.69531,0.4375 -0.54688,0.4375 -0.54688,1.36719 0,0.30989 0.0547,0.63802 0.0729,0.30989 0.23698,0.72916 l 2.73437,6.65364 q 0.25521,0.63802 0.52865,1.40365 0.29166,0.74739 0.52864,1.49479 0.25521,0.72916 0.45573,1.38541 0.20052,0.65625 0.27344,1.13021 h 0.10937 q 0.20052,-0.82031 0.54688,-1.98698 0.36458,-1.18489 0.83854,-2.53385 l 2.49739,-7.27343 q 0.16406,-0.45573 0.23698,-0.875 0.0911,-0.41927 0.0911,-0.72917 0,-0.96614 -0.6198,-1.40364 -0.60156,-0.4375 -1.84114,-0.4375 h -0.10937 v -1.56771 z m 17.48696,9.97135 q 0,5.26822 -2.24218,7.83853 -2.22396,2.57031 -6.52604,2.57031 -2.02343,0 -3.6276,-0.63802 -1.60416,-0.63802 -2.73437,-1.93229 -1.11198,-1.29427 -1.71354,-3.24479 -0.58333,-1.96874 -0.58333,-4.59374 0,-5.23177 2.20572,-7.78385 2.22396,-2.55208 6.5625,-2.55208 2.02343,0 3.6276,0.63802 1.60416,0.61979 2.71614,1.91406 1.13021,1.27604 1.71354,3.22656 0.60156,1.93229 0.60156,4.55729 z m -13.81769,0 q 0,2.07812 0.27344,3.66406 0.27343,1.58593 0.87499,2.66145 0.6198,1.05729 1.58594,1.60417 0.98437,0.54687 2.38802,0.54687 1.40364,0 2.36979,-0.54687 0.96614,-0.54688 1.56771,-1.60417 0.60156,-1.07552 0.85677,-2.66145 0.27343,-1.58594 0.27343,-3.66406 0,-2.07813 -0.27343,-3.64583 -0.27344,-1.56771 -0.875,-2.60677 -0.60157,-1.05729 -1.58594,-1.58594 -0.96614,-0.52864 -2.36979,-0.52864 -1.40364,0 -2.36979,0.52864 -0.96614,0.52865 -1.56771,1.58594 -0.60156,1.03906 -0.87499,2.60677 -0.27344,1.5677 -0.27344,3.64583 z"
         id="text1-1-1-12-8-6-0-1-8"
         transform="translate(522.94366,236.15461)"
         aria-label="Católica de Cuyo&#10;" /><path
         style="font-style:italic;font-size:26.6667px;line-height:0.95;font-family:'Droid Serif';-inkscape-font-specification:'Droid Serif Italic';letter-spacing:-0.58px;white-space:pre;stroke-width:1.00157"
         d="m 160.67904,140.77247 q 0,2.04427 1.08073,3.29428 1.08073,1.23698 2.96875,1.23698 1.86199,0 2.95574,-0.92448 1.10677,-0.92448 1.10677,-2.51303 0,-1.26302 -0.63802,-2.13542 -0.625,-0.87239 -2.72136,-2.05729 -2.13542,-1.23698 -2.96875,-2.53907 -0.82032,-1.30208 -0.82032,-2.94271 0,-2.30469 1.7448,-3.72396 1.74479,-1.4323 4.72656,-1.4323 2.31772,0 3.69793,0.8073 1.38021,0.80729 1.38021,2.07031 0,1.84896 -2.35678,1.84896 0,-1.5625 -0.74219,-2.47396 -0.74218,-0.91146 -2.1875,-0.91146 -1.58854,0 -2.60417,0.91146 -1.01563,0.91146 -1.01563,2.44792 0,1.13282 0.53386,1.96615 0.54688,0.82031 2.76042,2.10938 2.09636,1.22396 3.02084,2.4349 0.9375,1.21094 0.9375,2.76042 0,2.64323 -1.84896,4.12761 -1.84896,1.47135 -5.14324,1.47135 -2.72136,0 -4.32292,-1.06771 -1.60156,-1.08073 -1.60156,-2.73438 0,-0.92448 0.57291,-1.47135 0.58594,-0.5599 1.48438,-0.5599 z m 21.42524,1.54948 H 181.935 q -1.91406,4.28386 -4.98698,4.28386 -1.62761,0 -2.53907,-1.27604 -0.89843,-1.28907 -0.89843,-3.59376 0,-3.67188 2.27864,-6.8099 2.29167,-3.13803 5.66407,-3.13803 1.8099,0 3.12501,0.96355 l 1.17187,-0.67709 h 0.85938 l -1.82292,8.54168 q -0.39062,1.83594 -0.39062,2.95573 0,1.35417 0.87239,1.35417 0.75521,0 1.92709,-0.6901 l 0.48177,0.78125 q -1.91407,1.58854 -3.76303,1.58854 -2.08333,0 -2.08333,-2.21354 0,-0.84636 0.27344,-2.07032 z m 1.51041,-8.3724 q -0.61198,-0.96355 -2.01823,-0.96355 -2.27865,0 -3.82813,2.90365 -1.53646,2.89063 -1.53646,5.95053 0,3.08594 1.67969,3.08594 1.32813,0 2.78646,-1.96615 1.45834,-1.96614 1.92709,-4.29688 z m 7.27158,12.39584 h -2.48699 l 2.23959,-10.71615 q 0.15625,-0.74219 0.15625,-1.19792 0,-1.26303 -1.86198,-1.26303 h -0.20833 l 0.23437,-1.11979 h 4.9349 l -0.71614,3.35938 h 0.26041 q 2.16146,-3.59375 4.85678,-3.59375 2.85157,0 2.85157,2.95573 0,0.84635 -0.48178,2.92969 l -0.6901,3.15105 q -0.35156,1.60156 -0.35156,2.79948 0,1.27604 0.9375,1.27604 0.76823,0 1.70573,-0.61198 l 0.48177,0.78125 q -1.74479,1.51042 -3.25521,1.51042 -1.10677,0 -1.77084,-0.71614 -0.65104,-0.71615 -0.65104,-1.94011 0,-1.22396 0.50781,-3.60678 l 0.61198,-2.76042 q 0.39063,-1.61458 0.39063,-2.48698 0,-1.57552 -1.22396,-1.57552 -1.48438,0 -3.04688,2.00521 -1.54948,2.00521 -1.99219,3.9974 z m 29.17858,-19.03648 -0.23438,1.1198 h -0.35156 q -1.27604,0 -1.83594,0.48177 -0.5599,0.48177 -0.75521,1.43229 l -3.46354,16.21096 q -0.70313,3.26823 -2.23959,4.72657 -1.52344,1.47135 -4.16667,1.47135 -1.1849,0 -2.17448,-0.29948 l 0.36458,-1.19791 q 0.66406,0.23437 1.73177,0.23437 1.54948,0 2.40886,-1.15886 0.85938,-1.15885 1.40625,-3.75 l 3.46355,-16.34117 q 0.11718,-0.54687 0.11718,-0.74218 0,-1.06771 -1.92708,-1.06771 h -0.33854 l 0.23437,-1.1198 z m -0.39771,4.73959 h 4.96094 l -1.75781,7.98178 q -0.53386,2.42188 -0.53386,3.21615 0,1.62761 1.30209,1.62761 1.36719,0 2.94271,-1.96615 1.58854,-1.97917 2.07032,-4.21875 l 1.39323,-6.64064 h 2.57812 l -1.83593,8.56772 q -0.40365,1.88802 -0.40365,2.95573 0,1.35417 0.88542,1.35417 0.75521,0 1.70573,-0.58594 l 0.48177,0.78126 q -1.69271,1.48437 -3.38542,1.48437 -1.00261,0 -1.62761,-0.71614 -0.61198,-0.71615 -0.61198,-1.8099 0,-0.69011 0.13021,-1.57553 h -0.20833 q -1.44532,2.38282 -2.59115,3.22917 -1.13282,0.84636 -2.56511,0.84636 -2.85157,0 -2.85157,-2.95573 0,-0.84636 0.48178,-2.92969 l 1.04166,-4.67449 q 0.23438,-1.05469 0.23438,-1.58854 0,-1.26303 -1.86198,-1.26303 h -0.20834 z m 23.37836,10.27345 h -0.16927 q -1.91406,4.28386 -4.98698,4.28386 -1.62761,0 -2.53907,-1.27604 -0.89844,-1.28907 -0.89844,-3.59376 0,-3.67188 2.27865,-6.8099 2.29167,-3.13803 5.66407,-3.13803 1.8099,0 3.12501,0.96355 l 1.17187,-0.67709 h 0.85938 l -1.82292,8.54168 q -0.39063,1.83594 -0.39063,2.95573 0,1.35417 0.8724,1.35417 0.75521,0 1.92709,-0.6901 l 0.48177,0.78125 q -1.91407,1.58854 -3.76303,1.58854 -2.08333,0 -2.08333,-2.21354 0,-0.84636 0.27343,-2.07032 z m 1.51042,-8.3724 q -0.61198,-0.96355 -2.01823,-0.96355 -2.27865,0 -3.82813,2.90365 -1.53646,2.89063 -1.53646,5.95053 0,3.08594 1.67969,3.08594 1.32813,0 2.78646,-1.96615 1.45834,-1.96614 1.92709,-4.29688 z m 7.27157,12.39584 h -2.48698 l 2.23959,-10.71615 q 0.15625,-0.74219 0.15625,-1.19792 0,-1.26303 -1.86199,-1.26303 h -0.20833 l 0.23438,-1.11979 h 4.9349 l -0.71615,3.35938 h 0.26042 q 2.16146,-3.59375 4.85677,-3.59375 2.85157,0 2.85157,2.95573 0,0.84635 -0.48177,2.92969 l -0.69011,3.15105 q -0.35156,1.60156 -0.35156,2.79948 0,1.27604 0.9375,1.27604 0.76823,0 1.70573,-0.61198 l 0.48178,0.78125 q -1.7448,1.51042 -3.25522,1.51042 -1.10677,0 -1.77083,-0.71614 -0.65105,-0.71615 -0.65105,-1.94011 0,-1.22396 0.50782,-3.60678 l 0.61198,-2.76042 q 0.39062,-1.61458 0.39062,-2.48698 0,-1.57552 -1.22396,-1.57552 -1.48437,0 -3.04688,2.00521 -1.54948,2.00521 -1.99219,3.9974 z"
         id="text1-1-1-1-3-4-8-5-0-9"
         transform="translate(524.89418,268.77746)"
         aria-label="San Juan" /></g><g
       id="g5-3-5-1-4-1-7"
       transform="translate(-149.87234,89.203632)"
       style="fill:#de711e;fill-opacity:1"><path
         id="path49-4-0-3-1-2-7"
         d="m 664.62937,312.61207 -117.43866,0.208 v 103.464 c 0,11.848 9.52133,21.64 20.98533,21.672 l 13.97867,0.0413 c 8.40667,0.12534 17.71333,-1.60933 21.66133,9.588 0.0213,0.52134 1.67733,1.05734 2.23467,1.05734 0.552,0 2.26533,-0.55734 2.29733,-1.09867 3.052,-10.31733 12.66133,-9.68267 21.848,-9.69333 l 13.79733,-0.0307 c 11.46934,0 20.85867,-9.688 20.85867,-21.536 v -4.33333 l -0.22267,-99.33867"
         style="display:none;fill:#de711e;fill-opacity:1;fill-rule:evenodd;stroke:none;stroke-width:1.33333" /><path
         id="path50-1-9-5-2-5-8"
         d="m 605.55071,413.87207 0.0107,-42.17733 h -41.05199 l -0.0107,0.0947 0.0107,33.71333 c 0,8.18666 6.12933,14.776 14.06266,14.79066 7.07734,0.0213 14.16667,0.0373 21.24933,-0.0307 2.64534,-0.0213 4.74534,0.46933 5.66667,3.224 0.12,0.32266 0.11467,0.0933 0.11467,-0.26 l -0.0213,-1.328 v -1.396 l -0.02,-6.63067 z m -39.94267,-26.42133 v -0.412 h 2.47334 v 0.412 h -1.00934 v 3.848 h -0.45866 v -3.848 z m 2.948,-0.412 h 2.57734 v 0.42133 h -2.13467 v 1.33334 h 2.10933 v 0.41733 h -2.10933 v 1.672 h 2.10933 v 0.416 h -2.552 z m 2.71334,3.464 0.37466,-0.20933 c 0.26534,0.464 0.584,0.69333 0.932,0.69333 0.15734,0 0.29734,-0.036 0.43334,-0.0933 0.124,-0.0733 0.23333,-0.15734 0.29066,-0.27067 0.0733,-0.11467 0.10534,-0.224 0.10534,-0.34933 0,-0.14667 -0.0427,-0.292 -0.14667,-0.428 -0.14533,-0.18667 -0.40133,-0.416 -0.77067,-0.68134 -0.38,-0.26533 -0.60933,-0.45866 -0.70266,-0.57866 -0.156,-0.21334 -0.22934,-0.42134 -0.22934,-0.65067 0,-0.18267 0.036,-0.36 0.12534,-0.50533 0.104,-0.156 0.228,-0.28134 0.40533,-0.364 0.172,-0.0947 0.35467,-0.136 0.54667,-0.136 0.21866,0 0.412,0.0573 0.59466,0.156 0.192,0.0987 0.38,0.28133 0.59334,0.54666 l -0.36934,0.26134 c -0.172,-0.204 -0.31333,-0.34934 -0.432,-0.412 -0.11466,-0.0733 -0.25066,-0.104 -0.39066,-0.104 -0.17734,0 -0.33334,0.052 -0.444,0.156 -0.11867,0.0987 -0.17067,0.224 -0.17067,0.38 0,0.0947 0.009,0.188 0.0613,0.26533 0.032,0.0893 0.11467,0.19333 0.22,0.29733 0.0667,0.052 0.25467,0.188 0.588,0.42267 0.38534,0.26533 0.65067,0.50933 0.80267,0.71867 0.13467,0.21333 0.208,0.42666 0.208,0.64533 0,0.30667 -0.13067,0.568 -0.37067,0.80667 -0.244,0.22933 -0.54666,0.33333 -0.91066,0.33333 -0.26,0 -0.51067,-0.0667 -0.73467,-0.19733 -0.21867,-0.15067 -0.42133,-0.37467 -0.60933,-0.70267 z m 2.95333,-3.052 v -0.412 h 2.468 v 0.412 h -1.004 v 3.848 h -0.448 v -3.848 z m 2.88,-0.412 h 0.44267 v 4.26 h -0.44267 z m 1.09867,4.26 0.636,-4.26 h 0.0827 l 1.82267,3.49467 1.808,-3.49467 h 0.0733 l 0.64534,4.26 h -0.44268 l -0.43733,-3.04667 -1.58934,3.04667 h -0.10933 l -1.60933,-3.06267 -0.43734,3.06267 z m 7.928,-4.36933 c 0.67066,0 1.244,0.21866 1.69733,0.656 0.464,0.42266 0.68267,0.948 0.68267,1.57866 0,0.62934 -0.21867,1.16134 -0.68267,1.59334 -0.45333,0.42133 -1.01067,0.64533 -1.66667,0.64533 -0.66666,0 -1.224,-0.208 -1.69333,-0.64533 -0.44667,-0.432 -0.68133,-0.964 -0.68133,-1.57334 0,-0.39466 0.0987,-0.78133 0.312,-1.13466 0.21333,-0.34934 0.48933,-0.62 0.86,-0.81334 0.35866,-0.19733 0.74933,-0.30666 1.172,-0.30666 z m 0.02,0.416 c -0.33867,0 -0.656,0.084 -0.95334,0.24533 -0.29066,0.16667 -0.52533,0.396 -0.69733,0.66133 -0.16667,0.28134 -0.24,0.59334 -0.24,0.932 0,0.50534 0.17733,0.93334 0.552,1.28667 0.37067,0.34933 0.808,0.516 1.33867,0.516 0.344,0 0.66666,-0.0733 0.95866,-0.24 0.29734,-0.156 0.52534,-0.36933 0.69734,-0.65067 0.16666,-0.28133 0.256,-0.59333 0.256,-0.932 0,-0.33333 -0.0893,-0.636 -0.256,-0.912 -0.172,-0.276 -0.4,-0.49466 -0.69734,-0.66133 -0.308,-0.16133 -0.62533,-0.24533 -0.95866,-0.24533 z m 3.09866,3.95333 v -4.26 h 0.0947 l 2.98933,3.26533 v -3.26533 h 0.44267 v 4.26 h -0.104 l -2.95333,-3.21867 v 3.21867 z m 4.396,-4.26 h 0.44267 v 4.26 h -0.44267 z m 0.95867,0 h 0.484 l 1.48933,3.292 1.52134,-3.292 h 0.48933 l -1.95733,4.26 h -0.10534 z m 4.35467,4.26 0.64533,-4.26 h 0.068 l 1.828,3.49467 1.80666,-3.49467 h 0.084 l 0.63467,4.26 h -0.43733 l -0.448,-3.04667 -1.58267,3.04667 h -0.10933 l -1.60934,-3.06267 -0.44266,3.06267 z m -17.38534,8.46933 v -4.256 h 0.92667 c 0.672,0 1.16133,0.0533 1.464,0.15733 0.432,0.14534 0.78533,0.396 1.02,0.744 0.25067,0.36 0.37467,0.78134 0.37467,1.276 0,0.428 -0.10934,0.80267 -0.296,1.13067 -0.188,0.328 -0.44267,0.56267 -0.76134,0.71867 -0.30666,0.156 -0.73866,0.22933 -1.30133,0.22933 z m 0.42667,-0.40133 h 0.52 c 0.62,0 1.05733,-0.036 1.28667,-0.10934 0.33866,-0.104 0.61466,-0.29733 0.80266,-0.568 0.188,-0.27066 0.29734,-0.59866 0.29734,-1 0,-0.396 -0.10934,-0.744 -0.31867,-1.05733 -0.21333,-0.28133 -0.51067,-0.47867 -0.87467,-0.588 -0.28666,-0.0733 -0.74933,-0.11467 -1.39066,-0.11467 h -0.32267 z m 4.05733,-3.85467 h 2.57334 v 0.41733 h -2.136 v 1.33334 h 2.11466 v 0.412 h -2.11466 v 1.67066 h 2.11466 v 0.42267 h -2.552 z m -11,8.46933 h 0.45867 v 3.844 h 1.71333 v 0.41067 h -2.172 z m 1.672,0 h 0.49467 l 1.484,3.28667 1.51067,-3.28667 h 0.484 l -1.948,4.25467 h -0.0987 z m 4.35334,4.25467 0.63066,-4.25467 h 0.088 l 1.82934,3.5 1.796,-3.5 h 0.084 l 0.64,4.25467 h -0.44267 l -0.44267,-3.04667 -1.58266,3.04667 h -0.12 l -1.61467,-3.06667 -0.428,3.06667 h -0.44267 z m 5.71866,-4.25467 h 0.448 v 4.25467 h -0.448 z m 1.31334,4.25467 v -4.25467 h 0.0987 l 2.97863,3.25467 v -3.25467 h 0.44267 v 4.25467 h -0.104 l -2.95334,-3.224 v 3.224 z m 4.45333,-4.25467 h 2.572 v 0.42667 h -2.12933 v 1.31867 h 2.10933 v 0.42666 h -2.10933 v 1.66134 h 2.10933 v 0.42133 h -2.552 v -4.25467"
         style="fill:#de711e;fill-opacity:1;fill-rule:evenodd;stroke:none;stroke-width:1.33333" /><path
         id="path51-1-0-9-0-0-3"
         d="m 568.04538,342.72674 c 6.70266,1.92667 9.07333,5.62933 9.036,11.052 0,1.13467 0.0107,2.16667 0.12,3.07733 -0.02,-0.02 -0.0307,-0.036 -0.0467,-0.0467 -1.31733,-1.692 -1.13067,-3.51067 -3.156,-4.59867 0.208,3.40667 0.14533,6.99467 3.208,8.06267 3,0.80666 5.01067,3.33333 6.188,5.896 -2.03733,-2.15734 -4.75067,-3.30267 -7.21867,-3.964 -3.82266,-1.036 -4.324,-2.39067 -4.97466,-4.52667 -1.292,-4.28533 -2.604,-4.23333 -4.24934,-4.95733 1.55734,-0.636 2.78667,-0.12534 4.14534,0.49466 0.97866,-4.86 -0.328,-8.28133 -3.036,-10.48933 z m 32.10399,2.828 c 0,6.568 -2.80666,11.45333 -7.66666,12.76 -4.85867,1.31733 -6.97333,3.83333 -8.33867,7.69333 -0.14,-1.052 -0.244,-2.34933 -0.23466,-3.71866 0.67733,-4.40134 4.152,-5.35467 5.672,-6.724 -2.60934,-0.428 -4.34267,0.73333 -5.21867,2.432 0.62,-2.77067 2.01067,-5.31334 4.79733,-6.54667 5.62534,-2.48 7.672,0.30133 10.98933,-5.896 z m -21.25466,4.78667 c -0.276,1.28133 -0.5,2.64 -0.48,4.30666 0.0373,5.53067 3.188,6.896 4.80267,10.23467 -1.104,-3.98 -0.588,-7.15067 2,-11.11467 2.588,-3.94266 6.68266,-3.62533 7.52533,-14.208 -0.97867,2.19734 -2.35867,4.34267 -4.09333,5.14534 1.19333,-3.57867 0.14133,-8.16667 -1.416,-11.56267 0.104,3.412 -0.928,8.26 -4.51067,12.84933 -2.85467,3.64 -1.98933,8.052 -1.88533,11.896 -1.03734,-1.96933 -1.83334,-4.64133 -1.94267,-7.54666 z m 0.81733,-14.172 c 1.33867,1.35333 3.91734,3.80666 2.948,6.812 -0.636,2.04133 -1.90666,3.74533 -3.412,5.20266 0.084,-2.55733 0.672,-4.208 1.204,-5.552 0.916,-2.33866 0.432,-5.036 -0.74,-6.46266"
         style="fill:#de711e;fill-opacity:1;fill-rule:evenodd;stroke:none;stroke-width:1.33333" /><path
         id="path52-3-0-8-0-9-8"
         d="m 589.94671,435.21074 c 6.06267,-0.0573 11.572,1.468 14.26533,8.78666 0.83867,2.12 3.18267,1.83334 3.808,-0.708 1.68133,-6.36533 7.60933,-7.78666 16.09867,-8.344 h 18.88 c 9.968,-0.94266 16.29733,-7.09466 18.55733,-17.50533 0.45333,-2.08933 0.63467,-4.02133 0.63467,-6.15067 v -95.73466 h -112.348 v 97.88533 h 0.0147 c -0.088,12.55733 7.53733,20.51067 19.16266,21.76533 h 20.916 v 0.005 z m 17.364,-77.54667 c 0.31333,-0.12533 0.67733,-0.14133 0.67733,-0.49466 0.22933,-0.22934 1.28667,-0.33867 1.61467,-0.33867 0,-0.59467 0.24533,-0.25067 0.24533,-0.64667 l 2.97867,-1.25466 c 0.42133,0 1.30666,-1.24534 1.30666,-1.59867 l 0.428,-0.50533 0.68134,-0.24534 0.19866,-0.19733 c 0.38534,-0.12 1.34934,0.916 1.34934,1.57733 0.97866,-0.95733 3.104,-6.20266 3.62933,-6.20266 0,-0.19734 0.52133,-0.708 0.52133,-0.90667 l 0.87467,-0.70267 0.63067,0.536 0.34933,-1.00533 c 0,-0.27067 1.088,-0.796 1.39467,-0.796 0,-0.51067 1.10933,-1.432 1.1,-1.26533 0,0.984 0.124,2.42666 0.52533,3.20266 l 0.204,0.292 0.832,0.64534 c 0.31867,-0.156 0.704,-0.36934 0.90133,-0.36934 -0.13466,-0.42266 1.19867,-0.98933 1.568,-2.172 l 0.77067,0.76534 c 0,0 0.56267,0.364 0.69867,0.51066 0.16666,0 0.9,0.776 0.9,0.948 l 0.59466,0.31734 c 0.79067,-0.088 1.864,1.05733 1.92134,1.45333 0.32266,0 1.756,0.49467 2.07866,0.812 0.0307,0.032 0.52534,0.19333 1.07734,0.40133 -0.208,-0.26533 -0.71334,-0.78133 -0.80134,-0.828 -2.36533,-1.55733 -3.26133,-1.97333 -4.54666,-4.484 -0.46934,0 -1.48,-1.90133 -1.94267,-2.13066 -0.276,0.38 -1.43867,-1.192 -1.672,-1.30667 0,-1.02667 -0.36,-1.95867 -1.28667,-2.40667 0,-0.12 -0.16666,-0.51066 -0.28133,-0.51066 0,-0.344 -0.31733,0.25466 -0.31733,-0.0827 -0.22934,0 -0.49067,-0.42267 -0.71867,-0.42267 l -0.72,0.36 c -0.468,0.572 -0.88,1.01067 -0.88,1.69734 -0.46267,0.224 -1.50533,0.64133 -1.968,0.87466 -0.23467,0.912 -1.308,2.24534 -1.89067,2.81867 -0.704,0.10933 -1.38,0.672 -1.708,1.36933 -1.66266,3.52667 -3.85466,8.07334 -7.83866,9.88534 -0.79734,0.36 -1.548,-0.068 -1.99467,0.74533 -0.204,0.36933 -0.68267,0.49467 -1.02133,0.864 -0.224,0.0573 -0.312,0.51067 -0.464,0.688 z m 0,-1.07333 c 0.068,-0.0413 0.136,-0.088 0.188,-0.13467 0.37466,-0.36533 0.68666,-1.28666 0.94266,-1.756 0.47334,-0.85866 0.864,-0.13466 1.71334,-0.52133 4.18266,-1.9 5.896,-6.26 7.60933,-9.984 0.36533,-0.724 1.34933,-1.32267 2.088,-1.448 0.62,-0.59867 1.84933,-2.28133 2.08933,-3.244 0.49467,-0.23467 1.26534,-1.04667 1.74934,-1.28667 0,-0.724 1.31866,-2.688 1.81866,-3.28666 h 0.11467 l 0.124,-0.25067 c 0.24533,0 0.37067,0.12533 0.61467,0.12533 0,0.37067 0.24533,0.964 0.24533,1.328 0.12533,0 0.38,0.36 0.38,0.49067 0.984,0.46267 2.32267,2.88 2.32267,3.968 0.256,0.10933 0.98533,1.19867 0.98533,1.55733 0.49467,0.23467 1.84267,1.68267 2.33733,1.68267 1.26134,2.46267 3.948,4.156 6.292,5.73467 0.48934,-0.81334 1.00534,-1.83867 1.07334,-2.88134 0.052,-0.88533 1.172,-1.18666 1.16133,-1.5 l 0.464,1.188 1.61467,4.45867 c 0.328,0.792 1.95733,2.172 3.224,3.484 0.13466,0.14533 0.36933,0.22933 0.38533,0.41733 l 0.036,0.24934 v -24.23467 h -39.552 l -0.005,25.844 z m 39.56266,-0.0213 c -0.036,-0.009 -0.068,-0.0413 -0.10933,-0.0667 -0.13467,-0.0573 -0.27067,-0.12 -0.28667,-0.18267 -0.5,-1.464 -1.09333,-1.53066 -2.06266,-2.29733 -0.90534,-0.70267 -1.73867,-1.97867 -1.96267,-3.21333 -0.276,0.84933 -0.636,0.0733 -0.95867,-0.344 -0.0933,0.0267 -0.20266,0.0427 -0.33333,0.0627 -0.0733,0.14667 -0.24,0.104 -0.39067,0.052 -0.10933,0.0213 -0.24,0.0373 -0.37466,0.0427 0,0.0307 -0.016,0.072 -0.016,0.12933 l -0.44267,0.58934 c -0.0627,0.0987 -0.104,0.17066 -0.13067,0.17066 l -1.23866,1.64667 c -2.63067,1.82267 -4.02134,6.552 -6.15734,8.468 -0.95733,0.85467 -4.104,2.292 -5.13466,4.71467 0.208,0 1.27066,-0.52667 1.83333,-1.61467 1.052,-0.1 2.17733,-1.26133 2.97867,-1.47467 0.20933,0 0.59466,-0.0467 0.80266,-0.0467 l 0.33867,-0.31734 v -0.21333 c 0.37467,0 2.36933,-1.32933 2.36933,-2.016 l 0.56267,-0.65067 c 0.42133,0 0.47333,-0.376 0.90133,-0.376 0,-0.052 2.11467,-2.708 2.54134,-2.708 0,-0.59333 0.75466,-0.76 1.14533,-0.812 0.328,-0.44266 0.516,-1.204 0.92267,-1.23466 0,0.61466 0.92133,1.39066 1.12,1.80666 l 0.54666,0.60934 c 0.848,1.43866 1.75467,0.46933 2.59334,1.90133 l 0.94266,0.33333 z m 0,4.636 c -0.0827,0.10933 -0.244,-0.26534 -0.192,0.0413 0.0827,0.51067 0.14,0.948 0.192,1.32267 z m 0,3.35466 c -0.53066,0.104 -2.49466,-5.14666 -3.47866,-3.96933 -1.896,-1.85467 -2.57867,4.136 -2.81867,0.776 0,0 0,-0.656 -0.20267,-1.95333 l -0.656,1.05733 c -0.412,0.208 -2.24533,2.09867 -2.24533,2.704 -0.42133,0.41067 -0.796,1.728 -0.796,2.35333 -2.1,1.224 -0.21867,1.948 -1.912,3.604 -0.57867,0.88534 -0.12,1.25067 -0.94267,1.928 -1.432,1.18134 -0.68266,0.26 -0.50533,-0.22933 0.016,-0.0373 0.0373,-0.0733 0.0467,-0.11467 0.99066,-2.74533 2.224,-7.48933 1.78666,-7.12 l -1.99466,0.86 c -1.04667,1.02534 -3.15067,0.0413 -3.83334,1.09334 -0.21333,0.21333 -0.83333,0.828 -0.83333,1.02533 -0.21867,0 -0.84933,0.412 -0.84933,0.62 -0.16667,0 -0.82267,0.0987 -1.03067,0.14667 -0.21333,0.348 -0.39067,0.77066 -0.62533,1.24933 -0.30667,0 -0.516,1.57867 -0.71334,2.47867 l 1.92667,2.63066 c 1.61467,2.32267 6.73467,5.43734 7.36,7.97867 0.12533,0 0.26,0.14133 0.41067,0.33333 0.876,-1.37466 2.11466,-2.66666 2.204,-1.59333 0.44266,0.396 -0.16667,2.15067 0.76533,3.792 0.13067,0.0107 0.52667,-0.0107 0.51067,0.11467 l 0.38,0.724 0.11466,0.26 c 0.292,-0.18667 4.12,3.79733 4.208,4.484 l 0.39067,0.55733 c 0.80267,0.292 0.99467,0.62533 0.93733,0.62533 0.62,0.672 1.41734,1.09867 2.03734,1.76533 l 0.35866,0.396 z m 0,29.10933 c -0.172,-0.0373 -0.55733,-0.0373 -0.672,-0.13066 -0.50533,-0.536 -1.088,0.084 -1.86933,-0.464 l -0.68267,0.35466 c -0.33866,-0.20266 -0.14,1.396 0.536,2.75467 0,0.0213 0.016,0.0427 0.0267,0.0627 0.12,0.24 0.57867,0.69866 0.084,0.69866 -1.56267,0.02 -1.77733,-3.016 -2.84933,-3.95333 -0.95867,-0.776 -1.26134,-1.656 -2.276,-2.45333 l -0.46934,-0.276 -0.30133,0.40133 c -0.204,0.61467 -1.896,2.864 -1.896,2.864 -1.432,4.59867 -2,-4.66666 -3.75067,-1.38533 -0.85866,-0.58267 -4.94266,2.43733 -5.71333,2.82266 -0.104,0.516 -1.88,0.36 -2.24933,0.94267 -0.33867,0.328 -0.448,0.48533 -0.516,0.61467 1.34933,2.136 2.71866,5.188 5.53066,6.93733 1.152,0.724 2.93334,2.94267 5.948,5.412 2.78134,4.21867 2.91734,4.55733 6.53734,7.02667 0.14533,-0.12 0.30133,-0.26134 0.43733,-0.40134 2.52,-2.52666 3.92133,-6.24533 4.12,-11.208 0.02,-0.444 0.0253,-0.88666 0.0253,-1.32933 z m -5.23466,22.79067 -0.02,0.005 c -4.14667,-0.51466 -6.86534,-5.49466 -11.77067,-6.64 -4.38133,-3.40133 7.90533,8.54667 -2.412,0.72934 -1.02133,-0.776 -4.00533,0.19733 -2.57333,-4.54667 0,-1.50533 2.928,0.51467 4.49466,1.38533 l 1.04267,0.588 h 0.692 c 0,0.38 2.464,2.292 2.808,2.292 0,0.42667 4,3.364 6.49467,5.07734 -0.29734,-0.30134 -0.344,-0.52 -1.568,-1.604 -4.19734,-3.724 -6.89067,-6.33867 -11.47867,-9.62 -4.58933,-3.26534 -2.88533,-8.12934 -6.96933,-5.84267 -0.22934,0.47867 -1.67734,2.97867 -2.052,3.5 -2.052,2.624 -3.53067,4.10933 -6.33867,6.672 -0.864,0.796 -2.61467,2.536 -4.02133,3.83733 1.23466,-0.78533 3.33333,-2.28533 3.62,-2.80133 0.51066,0 1.44266,-0.86933 1.95333,-0.86933 0.51067,-0.93334 1.308,-1.47467 2.16133,-1.84934 0,-1.11466 1.328,-2.16666 1.81334,-2.37466 1.54666,-0.70934 0.0773,-0.75067 1.59866,-1.49067 0,-1.21867 0.46267,3.412 3.70267,2.14667 0,0.932 0.15067,0.5 0.15067,1.42666 l 0.428,2.516 c 0,2.40534 8.62,3.52 5.09333,3.744 -1.364,-1.66133 -5.52133,-1.18133 -6.08267,-3.01466 -0.28133,-0.93734 -0.81866,-0.0267 -1.31866,-0.776 l -1.05734,-1.45334 c -0.66666,3.708 -0.48933,0.276 -2.312,1.80667 -1.47466,2.83333 -0.83333,-1.18667 -0.656,-1.54667 -0.344,0.36 -1.44266,0.29734 -1.44266,1.036 -0.844,0 -2.1,1.07334 -3.10934,1.81334 l -1.92266,0.744 c -1.27067,0.964 -2.56667,1.704 -3.30667,2.00533 l -0.0107,7.68267 c 0.24934,-0.25467 0.636,-0.708 1.02134,-0.88534 0.952,-0.47466 2.228,-0.66666 4.05733,-0.59866 0.48933,0 0.99467,0.0147 1.51467,0.0573 h 16.756 c 0.42133,0 0.848,-0.0373 1.26,-0.0467 4.04133,-0.188 7.32266,-1.20933 9.76,-3.10533 z m -34.35867,-5.01467 c 1.12,-0.98533 3.75467,-2.57333 5.23467,-5.69866 0,0 5.02533,-5.48934 5.02533,-5.67734 0.328,0 2.172,-5.452 2.172,-5.82266 0.33867,-0.17734 0.66667,-0.54134 0.66667,-0.916 0.48933,0 0.812,-0.36 1.308,-0.36 0,0.18266 0.328,0.36 0.48933,0.36 0,0.18666 0.16667,0.916 0.16667,1.10933 0.61466,0.31733 1.12933,0.896 1.62933,1.63467 h 0.032 c 0.47333,-0.64534 1.948,-1.76 2.47333,-1.724 0.0267,-0.244 1.90667,-3.01467 2.04134,-3.124 l 0.0107,-0.12533 c 0.0107,-0.24 1.292,-1.19334 1.56267,-1.172 0.0373,-0.41734 2.41733,-4.536 2.84933,-4.88534 0.30667,-0.792 0.39067,-0.77066 1.172,-1.19333 0.036,-0.28533 0.19734,-0.692 0.432,-1.124 -0.17733,-0.0947 -0.312,-0.292 -0.44266,-0.5 l -1.86,-0.86 c -1.64534,0.40133 -0.18667,-3.07333 -5.18134,-3.088 0,-0.412 -1.14666,-1.032 -1.59466,-1.22933 0,-0.48 -0.98934,-0.59334 -1.46267,-0.59334 0.13467,0.036 -1.41733,-0.584 -1.308,0.036 0.19867,1.036 2.136,4.01067 3.256,8.18667 0.18133,0.69333 -0.704,-1.54133 -0.45333,-0.68667 -0.36934,0 -2.32267,-3.74533 -2.71867,-4.256 -0.16133,-0.0307 -0.82267,-0.79066 -2.24,-2.708 -1.016,-1.36933 -1.068,-0.85333 -1.92133,-1.66133 -1.396,0 -0.34934,2.02667 -1.396,2.02667 -0.87467,1.23333 -1.224,4.672 -1.74,5.296 -0.292,0.57333 -0.30667,-0.916 -0.30667,-0.76534 0,-2.64533 -0.792,0.12534 -0.59467,-2.55733 0.12,-1.42667 -1.33866,-5.776 -0.63466,-6.724 h 0.172 l -0.188,-1.16667 c -0.34934,0 -1.416,-0.0307 -1.416,0.12534 -0.69334,0 -1.21467,0.932 -2.08934,0.932 0,0.36 -2.088,0.92266 -3.12533,1.09866 z m 0.02,-38.66133 c 0.40667,-0.41733 1.048,-1.308 1.63067,-1.724 1.328,-0.91733 3.396,-2.38533 4.25066,-3.71866 0.98934,-1.548 2.34267,-2.97467 3.448,-4.41734 l 0.52,-0.82266 c 0,-0.448 0.48,-0.66134 0.48,-1.10934 l 1.33734,0.47334 c 1.01066,2.068 2.568,4.56266 3.5,5.83333 l 2.22,2.98533 c 0.34266,-0.844 -0.10534,-1.09466 0.35866,-2.31333 0.172,-0.42133 0.89067,-0.50533 1.04667,-0.916 0.32267,-0.78667 0.88,-1.308 1.30267,-2.032 0.68666,-1.14533 1.36933,-2.43733 2.74933,-3.296 3.67733,-2.30267 5.92267,-8.90133 7.19867,-10.26667 -0.38,-0.02 -0.83334,-0.0467 -1.39067,-0.104 -0.48933,-0.48933 -1.54667,0.36534 -1.87067,-0.276 -0.484,0 -1.16133,-0.5 -1.656,-0.5 -0.64533,-0.62933 -1.052,-1.68133 -1.85866,-2.00533 l -0.33867,-0.46267 c -0.32267,0 0.22933,0.94267 -0.0987,0.94267 l -0.448,1.85867 c -0.97466,0.64133 -0.80266,1.08933 -1.344,2.08933 l -0.724,1.37467 c -0.0107,0.47866 -0.64133,0.464 0.82267,-4.91734 -0.16667,-0.16133 -0.24,0.26134 -0.24,0.10534 -0.32267,0 -0.71333,1.18666 -1.036,1.18666 l 0.0107,-1.38 c -0.31867,0.55734 -0.708,1.136 -0.76134,1.448 -2.08266,13.896 -0.44266,0.60934 -2.97866,1.636 -0.49467,0.42134 -0.75467,-0.97466 -0.75467,-0.0533 -0.396,0 -0.84933,1.14667 -0.84933,1.532 -0.20267,0 -0.156,2.208 -0.36,2.40667 0,0.39066 -0.52534,0.45733 -0.65067,1.708 -0.396,0 -0.66133,1.104 -0.66133,1.30133 l 0.16133,0.80267 c -0.49467,0.0467 -0.45333,-0.42667 -0.64533,-1.76534 0.83333,-2.74 -0.59467,-2.724 -0.068,-5.33866 -0.32267,0.17733 -0.28134,0.87466 -0.54134,1.14 l -0.38,-0.45334 c -0.40666,0.39067 0.17067,1.10534 -0.62533,1.10534 0,0.78533 -0.88533,0.244 -0.88533,1.036 l -0.68267,0.18266 c -5.56267,-1.68266 -1.45333,1.23334 -6.844,1.708 -0.33867,0.104 -1.552,0.36934 -2.33333,0.468 z m 39.44267,20.57733 c -0.67067,-0.44266 -1.25467,-1.10933 -1.676,-1.14 0.009,-0.11466 -0.636,-0.55199 -0.77067,-0.55199 -0.16667,-0.38534 -1.37067,-1.256 -1.77733,-1.39067 -0.11334,-0.068 -0.228,-0.152 -0.34267,-0.224 -1.40667,-1.60933 -3.58933,-2.38533 -4.36,-3.912 0.0107,-0.10933 -0.67733,0.005 -0.78667,0 -0.30133,-0.66667 -0.14533,-1.66133 -0.68133,-2.224 v -0.0307 c -0.0107,0 -0.032,-0.0213 -0.052,-0.0373 -0.22,0.016 -1.12,0.86533 -1.85467,2.26133 -0.33866,0.17734 -1.27066,1.20267 -1.35466,1.192 -0.0107,0.24 -2.088,2.94267 -2.09334,3.01067 -0.72933,-0.052 -2.33866,2.344 -2.50533,2.88533 -0.54133,0.44267 -0.71867,0.72933 -1.016,1.15067 0.0627,-0.052 0.14133,-0.13467 0.21867,-0.208 0.42266,-0.40667 2.88533,-2.156 3.412,-2.62 l 0.72933,-0.624 1.09867,-0.0893 1.10933,-0.44267 c 0.568,-0.43733 0,2.35466 1.932,-0.95867 l 0.73467,0.48 c 0.17733,-0.188 1.276,-1.428 1.30266,-1.724 0.30134,0.0413 0.71334,0.64 0.96267,0.864 0.36533,0.0627 1.96933,1.432 1.96933,1.50534 0.71334,0.0467 1.036,0.19333 1.44267,0.536 -0.036,0.496 1.588,0.99066 2.01067,1.53733 0.172,0.02 0.49466,0.052 0.59866,-0.005 0.57867,0.14 1.04667,0.50534 1.74934,0.76 z M 633.84804,381.8041 c -0.12,-0.17733 -0.23467,-0.31733 -0.37067,-0.35333 -0.57733,-2.41733 -4.95866,-3.95333 -6.484,-6.15733 l -5.088,-6.65067 c -1.10533,-1.36933 -2.92266,-0.83333 -2.92266,-2.63067 l -0.464,-0.9 c 0,0.42667 -0.94267,-0.12533 -0.94267,0.29067 l -0.71333,1.14133 c -1.05734,1.36934 -1.572,-0.15066 -2.52534,1.31734 -0.808,1.256 -3.308,2.57866 -4.568,3.45866 -0.12533,0.0933 -0.24,0.17734 -0.344,0.28134 -0.49466,0.156 -1.18666,1.03066 -1.42666,1.468 1.12533,-0.52534 2.54133,-1.21867 3.292,-1.94267 v -0.16133 c 0,-0.47867 3,0.0733 3,-0.68667 0.4,-0.084 0.692,-0.42267 1.04666,-0.31333 -0.756,0.91733 0.328,2.308 0.328,3.21333 l -0.35466,0.31333 v 4.54134 c 0,-0.156 0.35466,-0.932 0.516,-0.932 0,-0.68267 0.52133,-1.44267 0.52133,-1.912 0.51467,-0.312 0.69733,-0.60934 0.69733,-1.08267 0.172,0 -0.60933,-3.56267 1.05734,-2.11467 0.14,-0.0413 2.04666,2.88534 3.38,5.16134 0.036,-0.12534 0.104,-0.22934 0.21866,-0.32267 -1.68133,-2.95333 -0.364,-3.35467 0.52667,-2.844 0.156,0.0933 0.088,-0.21333 0.13467,-0.19733 l -1,-0.86534 c 0.48933,-0.54666 -0.39067,-1.396 -0.25467,-1.708 0,-0.30266 0.744,0.47867 0.744,0.17734 0.62533,0.64533 0.756,0.848 1.10533,1.09333 0,0.59333 0.796,0.328 0.796,0.88533 1.396,0 2.13067,1.70267 3.07867,2.448 l 1.01067,1.06267 c 0.33866,0.30133 1.37466,0.80667 1.37466,1.26533 0.33867,0 1.14534,0.14534 1.14534,0.292 l 0.92266,1.15067 0.068,0.26 0.244,0.40133 z m -6.63067,-15.35333 c -0.005,0.009 -0.005,0.02 -0.005,0.0467 0,-0.0267 0,-0.0373 0.005,-0.0467 z m -4.896,69.604 c -5.67733,0.33333 -12.80666,2.89066 -13.844,8.58266 -0.70266,2.828 -4.10933,2.85467 -5.04666,0.37467 -1.59867,-5.58267 -6.58267,-8.56133 -13.896,-8.692 h -20.51467 c -11.86,-0.71867 -20.73466,-8.932 -20.308,-22.86933 v -99.02133 h 114.62 v 97.55733 c 0,1.828 -0.13067,3.45866 -0.5,5.24933 -2.37467,11.72933 -10.00533,18.396 -19.83333,18.81867 z m -22.40666,-14.4947 c 2.22933,0.0773 3.52666,0.452 4.568,2.44267 0.68266,1.30666 1.172,1.692 1.61466,1.676 0.75067,-0.02 1.29734,-1.30134 1.964,-2.47334 0.484,-0.86 1.55734,-1.95333 6.208,-1.78666 l 17.04667,0.14133 c 7.09333,-0.14133 16.136,-3.07867 17.224,-15.28133 l 0.12,-77.032 -85.33866,0.12 0.036,76.39066 c 0.19333,9.45334 6.60933,15.73467 14.844,15.54667 z m 8.45333,18.38 c -0.71333,1.09333 -0.84933,2.12533 -1.32267,3.26533 -0.636,1.47867 -1.672,1.188 -2.26,-0.0307 -0.52133,-1.1 -0.81333,-2.02134 -1.568,-3.06267 -3.45866,-4.73467 -8.91199,-6.172 -14.48399,-6.172 h -18.328 c -11.396,0 -20.10534,-7.87467 -19.464,-22.09867 v -94.89599 h 109.84399 v 95.55199 c -0.73466,13.80134 -8.76533,21.44267 -19.48933,21.44267 -6.568,0.02 -13.28667,-0.27067 -19.844,0.0933 -4.74533,0.27067 -10.37067,1.77067 -13.084,5.90667 z m -43.49466,-109.912 h 40.67733 v 40.412 h -41.06267 v -40.412 z m 39.91733,0.75067 h -39.54267 v 38.92133 h 39.54267 z m 2.16133,-0.776 h 40.68133 v 72.95733 c 0,0.45867 -0.009,0.91733 -0.02,1.34933 v 0.016 c -0.21333,5.14534 -1.69333,9.03067 -4.344,11.692 -2.672,2.66667 -6.48933,4.136 -11.36,4.34934 -0.416,0.016 -0.848,-0.016 -1.29066,-0.016 h -16.808 c -0.53067,-0.036 -1.04134,0.032 -1.484,0.032 -1.64,0 -2.59334,0.0733 -3.42667,0.47866 -1.1,0.54134 -1.79733,1.708 -2.324,2.85467 v -93.71333 z m -0.376,92.80133 v -0.072 m 0,0.072 v 0 m -29.83733,6.948 h 2.03067 l -1.01067,-1.86933 z m 80.68133,-85.25466 v -2.68267 h -6.08267 v 2.68267 c 0,1.08266 0.276,1.932 0.81734,2.552 0.54666,0.62 1.28133,0.92666 2.21333,0.92666 0.91733,0 1.656,-0.30666 2.204,-0.93733 0.56133,-0.636 0.848,-1.484 0.848,-2.54133 z m 0.90667,0 c 0,1.38533 -0.37467,2.5 -1.10934,3.348 -0.72933,0.844 -1.69333,1.272 -2.864,1.272 -1.19333,0 -2.14133,-0.41734 -2.85466,-1.256 -0.708,-0.83867 -1.068,-1.96267 -1.068,-3.364 v -3.76534 h 7.896 z m -7.896,7.12933 h 7.896 v 6.91733 h -0.90667 v -5.82266 h -2.32267 v 3.51466 h -0.912 v -3.51466 h -2.848 v 6.18666 h -0.90666 z m 2.51066,27.88133 -0.57866,0.86934 c -0.68667,-0.40134 -1.21867,-0.94267 -1.588,-1.65067 -0.36534,-0.704 -0.55734,-1.5 -0.55734,-2.39067 0,-1.31333 0.396,-2.40133 1.172,-3.256 0.78134,-0.85866 1.77067,-1.296 2.964,-1.296 1.208,0 2.20267,0.43734 2.968,1.296 0.78134,0.85467 1.172,1.94267 1.172,3.256 0,0.81734 -0.156,1.552 -0.47333,2.224 -0.31333,0.66667 -0.78133,1.21867 -1.37067,1.63467 l -0.58266,-0.916 c 0.47333,-0.276 0.84266,-0.68267 1.10933,-1.19333 0.26,-0.53067 0.4,-1.104 0.4,-1.74934 0,-0.98533 -0.30667,-1.808 -0.92133,-2.45333 -0.59867,-0.64667 -1.36934,-0.96933 -2.30134,-0.96933 -0.928,0 -1.69866,0.32266 -2.29733,0.96933 -0.61467,0.64533 -0.912,1.468 -0.912,2.45333 0,0.692 0.14667,1.30134 0.45867,1.83867 0.30666,0.54133 0.75066,0.984 1.33866,1.33333 z m -2.51066,6.92134 v -0.688 l 7.896,-4.23867 v 1.18667 l -6.33867,3.396 6.33867,3.39066 v 1.208 z m 0,7.88533 h 3.95866 l 3.93734,-3.964 v 1.376 l -3.12534,3.14 3.12534,3.136 v 1.39066 l -3.95867,-3.99066 h -3.93733 z m 0.71333,10.03066 c 0,0.98 0.29733,1.808 0.912,2.448 0.59867,0.652 1.36933,0.96934 2.29733,0.96934 0.932,0 1.70267,-0.31734 2.31734,-0.964 0.59866,-0.64534 0.90533,-1.468 0.90533,-2.45334 0,-0.99466 -0.30667,-1.80666 -0.92133,-2.45733 -0.59867,-0.64667 -1.36934,-0.96933 -2.30134,-0.96933 -0.928,0 -1.69866,0.32266 -2.29733,0.96933 -0.61467,0.65067 -0.912,1.46267 -0.912,2.45733 z m -0.92667,0 c 0,-1.31733 0.396,-2.40533 1.172,-3.27066 0.78134,-0.848 1.77067,-1.28534 2.964,-1.28534 1.208,0 2.20267,0.43734 2.968,1.296 0.78134,0.85467 1.172,1.94267 1.172,3.26 0,1.31334 -0.39066,2.40667 -1.172,3.27734 -0.78133,0.85333 -1.77066,1.29066 -2.968,1.29066 -1.19333,0 -2.18266,-0.43733 -2.964,-1.29066 -0.776,-0.87067 -1.172,-1.95867 -1.172,-3.27734 z m -76.43733,-80.12933 0.93734,0.58267 c -0.432,0.672 -1.03067,1.204 -1.792,1.568 -0.74,0.36 -1.59334,0.552 -2.54134,0.552 -1.41733,0 -2.57866,-0.39067 -3.51066,-1.16667 -0.92134,-0.77066 -1.36934,-1.744 -1.36934,-2.93733 0,-1.192 0.448,-2.16667 1.38,-2.948 0.92134,-0.76533 2.09867,-1.156 3.5,-1.156 0.85867,0 1.65067,0.156 2.36934,0.47333 0.71866,0.324 1.31333,0.76667 1.756,1.36 l -0.98534,0.568 c -0.296,-0.45866 -0.71866,-0.81866 -1.27066,-1.08933 -0.572,-0.26 -1.18667,-0.396 -1.86934,-0.396 -1.07333,0 -1.94266,0.30267 -2.64533,0.90133 -0.68267,0.604 -1.03733,1.36534 -1.03733,2.28667 0,0.92133 0.35466,1.68267 1.03733,2.28667 0.70267,0.59866 1.572,0.90133 2.64533,0.90133 0.73467,0 1.396,-0.15733 1.96934,-0.45867 0.56666,-0.30266 1.04666,-0.74533 1.42666,-1.328 z m 6.04667,-0.52666 h 4.14533 l -2.07733,-3.47334 z m -3.02667,3.02666 4.60934,-7.828 h 0.97466 l 4.672,7.828 h -1.276 l -1.28133,-2.11466 h -5.21333 l -1.24534,2.11466 z m 13.772,0 v -6.932 h -3.95866 v -0.896 h 9.104 v 0.896 h -3.97467 v 6.932 z m 11.176,-0.71333 c 1.06267,0 1.93333,-0.30267 2.63067,-0.90133 0.69733,-0.604 1.036,-1.36534 1.036,-2.28667 0,-0.92133 -0.33867,-1.68267 -1.036,-2.28667 -0.688,-0.59866 -1.568,-0.90133 -2.63067,-0.90133 -1.06667,0 -1.93733,0.30267 -2.63466,0.90133 -0.68267,0.604 -1.03734,1.36534 -1.03734,2.28667 0,0.92133 0.35467,1.68267 1.03734,2.28667 0.69733,0.59866 1.56799,0.90133 2.63466,0.90133 z m 0,0.916 c -1.41067,0 -2.57733,-0.39067 -3.50533,-1.16667 -0.916,-0.77066 -1.36933,-1.744 -1.36933,-2.93733 0,-1.192 0.45333,-2.16667 1.38533,-2.948 0.912,-0.76533 2.084,-1.156 3.48933,-1.156 1.41733,0 2.57867,0.39067 3.50533,1.16667 0.932,0.776 1.396,1.74533 1.396,2.93733 0,1.19333 -0.464,2.16667 -1.38533,2.93733 -0.92133,0.776 -2.09867,1.16667 -3.516,1.16667 z m 8.34933,-0.20267 v -7.828 h 1.172 v 6.92667 h 6.156 v 0.90133 z m 10.172,0 v -7.87066 h 1.18267 v 7.87066 z m 12.932,-2.5 0.94267,0.58267 c -0.43733,0.672 -1.02,1.204 -1.77067,1.568 -0.76,0.36 -1.61466,0.552 -2.568,0.552 -1.416,0 -2.572,-0.39067 -3.49466,-1.16667 -0.92134,-0.77066 -1.38534,-1.744 -1.38534,-2.93733 0,-1.192 0.464,-2.16667 1.38534,-2.948 0.92266,-0.76533 2.08933,-1.156 3.49466,-1.156 0.86534,0 1.66667,0.156 2.37067,0.47333 0.724,0.324 1.312,0.76667 1.75467,1.36 l -0.97867,0.568 c -0.30267,-0.45866 -0.71867,-0.81866 -1.276,-1.08933 -0.56267,-0.26 -1.188,-0.396 -1.87067,-0.396 -1.05733,0 -1.932,0.30267 -2.62933,0.90133 -0.69867,0.604 -1.04267,1.36534 -1.04267,2.28667 0,0.92133 0.344,1.68267 1.04267,2.28667 0.69733,0.59866 1.572,0.90133 2.62933,0.90133 0.74,0 1.39067,-0.15733 1.97467,-0.45867 0.57333,-0.30266 1.04667,-0.74533 1.42133,-1.328 z m 6.06267,-0.52666 h 4.14533 l -2.08266,-3.47334 z m -3.04667,3.02666 4.62,-7.828 h 0.968 l 4.67734,7.828 h -1.276 l -1.276,-2.11466 h -5.208 l -1.24534,2.11466 z m -75.29733,87.20267 v 0.62 l -7.156,3.83333 v -1.07333 l 5.73467,-3.072 -5.73467,-3.07334 v -1.09333 z m 0,-4.90134 h -7.156 v -0.51466 l 5.34934,-5.172 h -5.34934 v -0.98934 h 7.156 v 0.5 l -5.33866,5.18667 h 5.33866 z m 0,-9.02 h -7.18666 v -1 h 7.18666 z m 0,-6.51066 v 0.62 l -7.156,3.83866 v -1.084 l 5.73467,-3.068 -5.73467,-3.06666 v -1.08933 z m 0,-4.90133 h -7.156 v -6.25467 h 0.82267 v 5.276 h 2.104 v -3.19333 h 0.824 v 3.19333 h 2.58267 v -5.60933 h 0.82266 z m -3.968,-8.95867 v -3.52 c 0,-0.49467 -0.0947,-0.87467 -0.292,-1.12533 -0.208,-0.25467 -0.48933,-0.396 -0.87466,-0.396 -0.37067,0 -0.66667,0.14133 -0.88,0.396 -0.20934,0.25066 -0.31867,0.60933 -0.31867,1.088 v 3.55733 z m 3.968,0.99067 h -7.156 v -4.568 c 0,-0.776 0.17734,-1.39067 0.54134,-1.83334 0.344,-0.44266 0.828,-0.656 1.45333,-0.656 0.52133,0 0.964,0.16134 1.328,0.50934 0.376,0.35466 0.59467,0.808 0.69333,1.38133 l 3.14,-1.99467 v 1.09334 l -3.13466,1.99466 v 3.08267 h 3.13466 z m -1.072,-8.052 -0.772,-0.57867 c 0.39067,-0.57333 0.69334,-1.156 0.896,-1.76 0.20934,-0.60933 0.31867,-1.21467 0.31867,-1.81333 0,-0.72934 -0.152,-1.328 -0.42267,-1.78667 -0.292,-0.46267 -0.65066,-0.692 -1.09333,-0.692 -0.344,0 -0.63067,0.16667 -0.86,0.49467 -0.21867,0.33333 -0.35867,0.78666 -0.4,1.364 -0.016,0.152 -0.0373,0.34933 -0.0427,0.61466 -0.0773,1.30267 -0.21866,2.204 -0.416,2.68267 -0.156,0.35467 -0.36533,0.64133 -0.604,0.828 -0.256,0.19867 -0.54666,0.292 -0.86,0.292 -0.572,0 -1.04666,-0.28133 -1.42133,-0.86 -0.37467,-0.56133 -0.552,-1.30667 -0.552,-2.21867 0,-0.672 0.0933,-1.32266 0.296,-1.96266 0.188,-0.65734 0.48,-1.276 0.87067,-1.84934 l 0.73333,0.57334 c -0.348,0.5 -0.624,1.00533 -0.80667,1.552 -0.172,0.54133 -0.26,1.09333 -0.26,1.66666 0,0.59867 0.104,1.09334 0.312,1.48934 0.21867,0.38533 0.47467,0.57733 0.78667,0.57733 0.13067,0 0.24,-0.036 0.34933,-0.0987 0.0933,-0.0627 0.19734,-0.14533 0.28134,-0.27066 0.224,-0.33334 0.35866,-1.04667 0.42666,-2.13467 0.0307,-0.496 0.052,-0.88133 0.0827,-1.15733 0.084,-0.80667 0.31333,-1.44267 0.69867,-1.92134 0.39066,-0.46933 0.864,-0.70266 1.416,-0.70266 0.66666,0 1.21866,0.32266 1.652,0.97333 0.432,0.636 0.656,1.484 0.656,2.54133 0,0.78134 -0.104,1.532 -0.31734,2.20934 -0.204,0.672 -0.52666,1.32266 -0.948,1.948 z m 1.072,-9.54267 h -7.18666 v -1.00533 h 7.18666 z m -6.33333,-6.76533 v 2.42133 h 5.51067 v -2.42133 c 0,-0.97867 -0.24934,-1.75467 -0.74,-2.31734 -0.49467,-0.568 -1.16667,-0.84933 -2.004,-0.84933 -0.83467,0 -1.50134,0.292 -2.00534,0.86533 -0.51066,0.57734 -0.76133,1.33734 -0.76133,2.30134 z m -0.82267,0 c 0,-1.24534 0.33867,-2.26534 1,-3.04134 0.66667,-0.76 1.536,-1.14666 2.604,-1.14666 1.07867,0 1.932,0.38666 2.57867,1.14133 0.64533,0.74933 0.97333,1.77067 0.97333,3.04667 v 3.41733 h -7.156 z m 4.396,-6.984 v -3.51067 l -3.172,1.76533 z m 2.76,2.56266 -7.156,-3.90133 v -0.82267 l 7.156,-3.94266 v 1.07733 l -1.92133,1.07333 v 4.40134 l 1.92133,1.05733 z m -6.33333,-13.24533 v 2.432 h 5.51067 v -2.432 c 0,-0.97867 -0.24934,-1.74533 -0.74,-2.31733 -0.49467,-0.55734 -1.16667,-0.83334 -2.004,-0.83334 -0.83467,0 -1.50134,0.276 -2.00534,0.85867 -0.51066,0.568 -0.76133,1.328 -0.76133,2.292 z m -0.82267,0 c 0,-1.25467 0.33867,-2.26533 1,-3.03067 0.66667,-0.76666 1.536,-1.14133 2.604,-1.14133 1.07867,0 1.932,0.36533 2.57867,1.12533 0.64533,0.75467 0.97333,1.77067 0.97333,3.04667 v 3.41733 h -7.156 z m 21.07334,93.04666 2.656,-4.88 h 0.516 l 2.68133,4.88 h -0.87467 l -0.68266,-1.244 h -2.76 l -0.672,1.244 z m 8.516,-2.83866 h 2.78533 c 0.27067,0 0.49467,-0.0627 0.64667,-0.18667 0.14533,-0.10933 0.21866,-0.27067 0.21866,-0.48 0,-0.21333 -0.0733,-0.38533 -0.21866,-0.49467 -0.152,-0.104 -0.376,-0.16666 -0.64667,-0.16666 h -2.78533 z m 0,0.70933 v 2.12933 h -0.82934 v -4.86933 h 3.61467 c 0.52667,0 0.95333,0.12533 1.256,0.35867 0.292,0.24 0.45333,0.568 0.45333,1.00533 0,0.33867 -0.12533,0.636 -0.36,0.896 -0.24,0.25067 -0.552,0.40667 -0.94266,0.46933 l 1.464,2.14 h -0.90134 l -1.47866,-2.12933 z m 10.56133,0.23333 v -0.69733 h 2.16667 v 1.468 c -0.30667,0.42267 -0.69734,0.74 -1.18134,0.95333 -0.49466,0.224 -1.05733,0.324 -1.704,0.324 -0.95333,0 -1.74933,-0.23466 -2.364,-0.724 -0.604,-0.48 -0.91733,-1.10533 -0.91733,-1.84933 0,-0.74533 0.31333,-1.36533 0.928,-1.86 0.61467,-0.48933 1.41067,-0.73333 2.35333,-0.73333 0.61467,0 1.14667,0.0987 1.62,0.30133 0.464,0.18267 0.85467,0.47467 1.16134,0.83867 l -0.63467,0.42666 c -0.224,-0.27066 -0.516,-0.468 -0.90133,-0.624 -0.36534,-0.15733 -0.78667,-0.24 -1.24534,-0.24 -0.71333,0 -1.296,0.18667 -1.74933,0.54134 -0.464,0.34933 -0.688,0.792 -0.688,1.33866 0,0.536 0.224,0.99467 0.67733,1.344 0.45334,0.35334 1.04667,0.52534 1.76,0.52534 0.45867,0 0.87067,-0.0667 1.24534,-0.22934 0.396,-0.156 0.66133,-0.33333 0.80133,-0.57733 v -0.52667 z m 4.69867,1.896 v -4.88 h 4.91066 v 0.71334 h -4.088 v 1.21866 h 2.67733 v 0.704 h -2.67733 v 1.54134 h 4.31733 v 0.70266 z m 8.74399,-0.22933 v -4.89067 h 0.43334 l 3.32266,3.43334 v -3.43334 h 0.80134 v 4.89067 h -0.42134 l -3.328,-3.42133 v 3.42133 z m 8.64134,0 v -4.208 h -2.208 v -0.68267 h 5.23866 v 0.68267 h -2.21866 v 4.208 z m 4.90133,0 v -4.9 h 0.83333 v 4.9 z m 3.69733,0 v -4.89067 h 0.42667 l 3.32933,3.43334 v -3.43334 h 0.80134 v 4.89067 h -0.42667 l -3.32267,-3.42133 v 3.42133 z m 8.292,-1.896 h 2.04667 l -1.02133,-1.86933 z m -1.896,1.896 2.65067,-4.89067 h 0.52133 l 2.67734,4.89067 h -0.87067 l -0.68133,-1.244 h -2.76134 l -0.68133,1.244 h -0.85467"
         style="display:inline;fill:#de711e;fill-opacity:1;fill-rule:evenodd;stroke:none;stroke-width:1.33333" /></g></g></svg>
