<?xml version="1.0" encoding="UTF-8" standalone="no"?>
<!-- Created with Inkscape (http://www.inkscape.org/) -->

<svg
   width="65.277153mm"
   height="51.107998mm"
   viewBox="0 0 246.71681 193.1641"
   version="1.1"
   id="svg1"
   xml:space="preserve"
   xmlns:xlink="http://www.w3.org/1999/xlink"
   xmlns="http://www.w3.org/2000/svg"
   xmlns:svg="http://www.w3.org/2000/svg"><defs
     id="defs1"><linearGradient
       id="linearGradient94"><stop
         style="stop-color:#de711e;stop-opacity:1;"
         offset="0"
         id="stop93" /><stop
         style="stop-color:#000000;stop-opacity:1;"
         offset="1"
         id="stop94" /></linearGradient><linearGradient
       id="linearGradient92"><stop
         style="stop-color:#de711e;stop-opacity:1;"
         offset="0.56112856"
         id="stop91" /><stop
         style="stop-color:#000002;stop-opacity:1;"
         offset="0.66144198"
         id="stop92" /></linearGradient><linearGradient
       xlink:href="#linearGradient92"
       id="linearGradient84"
       gradientUnits="userSpaceOnUse"
       gradientTransform="matrix(1.3988722,0,0,1.3988722,786.17066,838.88539)"
       x1="213.64563"
       y1="215.25401"
       x2="252.72015"
       y2="295.36865" /><linearGradient
       xlink:href="#linearGradient94"
       id="linearGradient85"
       gradientUnits="userSpaceOnUse"
       gradientTransform="matrix(1.3988722,0,0,1.3988722,808.61245,845.53596)"
       x1="212.93333"
       y1="261.36523"
       x2="282.24103"
       y2="261.36523" /></defs><g
     id="g120"
     transform="translate(-956.71479,-1044.283)"
     style="display:inline"><path
       style="display:inline;fill:#d3ac8d;fill-opacity:1;stroke-width:0.3707"
       d="m 956.71479,1237.4352 119.21551,-0.023 c 0,0 64.1672,-24.159 127.2448,-69.131 l 0.1851,-123.9982 c 0,0 -69.6777,111.3854 -246.64541,193.1527 z"
       id="path1-7-1-0-9-9-8-6" /><path
       style="display:inline;fill:url(#linearGradient84);stroke-width:0.3707"
       d="m 1000.8242,1237.4471 h 76.9433 c 0,0 63.5068,-24.7706 125.4163,-66.8224 v -70.6703 c 0,0 -55.7625,72.0766 -202.3596,137.4905 z"
       id="path2-6-1-9-1-6-0-1" /><path
       style="fill:url(#linearGradient85);stroke-width:0.3707"
       d="m 1106.479,1237.4348 h 96.9526 v -52.5646 c 0,0 -33.875,28.0345 -96.9526,52.5646 z"
       id="path3-3-0-3-5-8-2" /><path
       style="fill:#de711e;fill-opacity:1;stroke-width:0.3707"
       d="m 1160.7958,1237.4348 h 42.6358 v -18.6896 c 0,0 -12.8491,8.7607 -42.6358,18.6896 z"
       id="path4-8-0-5-1-8-4" /></g></svg>
