<?xml version="1.0" encoding="UTF-8" standalone="no"?>
<!-- Created with Inkscape (http://www.inkscape.org/) -->

<svg
   width="65.277145mm"
   height="51.108852mm"
   viewBox="0 0 246.71678 193.16732"
   version="1.1"
   id="svg1"
   xml:space="preserve"
   xmlns:xlink="http://www.w3.org/1999/xlink"
   xmlns="http://www.w3.org/2000/svg"
   xmlns:svg="http://www.w3.org/2000/svg"><defs
     id="defs1"><linearGradient
       id="linearGradient72"><stop
         style="stop-color:#bf2c22;stop-opacity:1;"
         offset="0"
         id="stop71" /><stop
         style="stop-color:#000000;stop-opacity:1;"
         offset="1"
         id="stop72" /></linearGradient><linearGradient
       id="linearGradient70"><stop
         style="stop-color:#bf2c22;stop-opacity:1;"
         offset="0.56112856"
         id="stop69" /><stop
         style="stop-color:#000002;stop-opacity:1;"
         offset="0.66144198"
         id="stop70" /></linearGradient><linearGradient
       xlink:href="#linearGradient70"
       id="linearGradient64"
       gradientUnits="userSpaceOnUse"
       gradientTransform="translate(-136.19613,-4.3824694)"
       x1="213.64563"
       y1="215.25401"
       x2="252.72015"
       y2="295.36865" /><linearGradient
       xlink:href="#linearGradient72"
       id="linearGradient65"
       gradientUnits="userSpaceOnUse"
       gradientTransform="translate(-120.15335,0.37177057)"
       x1="212.93333"
       y1="261.36523"
       x2="282.24103"
       y2="261.36523" /></defs><g
     id="g118"
     transform="matrix(1.398872,0,0,1.398872,19.976845,-199.2666)"
     style="display:inline"><path
       style="display:inline;fill:#eb948e;fill-opacity:1;stroke-width:0.264999"
       d="m -14.280681,280.52545 85.22259,-0.0168 c 0,0 45.870661,-17.27028 90.962431,-49.41904 l 0.13229,-88.64155 c 0,0 -49.80987,79.6251 -176.317311,138.07739 z"
       id="path1-7-1-0-9-9" /><path
       style="display:inline;fill:url(#linearGradient64);stroke-width:0.264999"
       d="m 17.251439,280.53398 55.0038,0.002 c 0,0 45.398571,-17.70757 89.655301,-47.76876 v -50.51947 c 0,0 -39.86249,51.52481 -144.659101,98.28664 z"
       id="path2-6-1-9-1-6" /><path
       style="fill:url(#linearGradient65);stroke-width:0.264999"
       d="m 92.779978,280.52523 h 69.307712 v -37.57648 c 0,0 -24.21595,20.0408 -69.307712,37.57648 z"
       id="path3-3-0-3-5" /><path
       style="fill:#bf2c22;fill-opacity:1;stroke-width:0.264999"
       d="m 131.60899,280.52523 h 30.4787 V 267.1647 c 0,0 -9.18536,6.26274 -30.4787,13.36053 z"
       id="path4-8-0-5-1" /></g></svg>
