<?xml version="1.0" encoding="UTF-8" standalone="no"?>
<!-- Created with Inkscape (http://www.inkscape.org/) -->

<svg
   width="65.277138mm"
   height="51.108849mm"
   viewBox="0 0 246.71675 193.16731"
   version="1.1"
   id="svg1"
   xml:space="preserve"
   xmlns:xlink="http://www.w3.org/1999/xlink"
   xmlns="http://www.w3.org/2000/svg"
   xmlns:svg="http://www.w3.org/2000/svg"><defs
     id="defs1"><linearGradient
       id="linearGradient44"><stop
         style="stop-color:#436600;stop-opacity:1;"
         offset="0"
         id="stop43" /><stop
         style="stop-color:#000000;stop-opacity:1;"
         offset="1"
         id="stop44" /></linearGradient><linearGradient
       id="linearGradient42"><stop
         style="stop-color:#436600;stop-opacity:1;"
         offset="0.56112856"
         id="stop41" /><stop
         style="stop-color:#000002;stop-opacity:1;"
         offset="0.66144198"
         id="stop42" /></linearGradient><linearGradient
       xlink:href="#linearGradient42"
       id="linearGradient36"
       gradientUnits="userSpaceOnUse"
       gradientTransform="translate(-121.83898,30.712791)"
       x1="213.64563"
       y1="215.25401"
       x2="252.72015"
       y2="295.36865" /><linearGradient
       xlink:href="#linearGradient44"
       id="linearGradient37"
       gradientUnits="userSpaceOnUse"
       gradientTransform="translate(-105.7962,35.467031)"
       x1="212.93333"
       y1="261.36523"
       x2="282.24103"
       y2="261.36523" /></defs><g
     id="g117"
     transform="matrix(1.3988719,0,0,1.3988719,-0.1069734,-248.36036)"
     style="display:inline"><path
       style="display:inline;fill:#8fb24d;fill-opacity:1;stroke-width:0.264999"
       d="m 0.07647119,315.62071 85.22258981,-0.0168 c 0,0 45.870659,-17.27028 90.962429,-49.41904 l 0.13229,-88.64155 c 0,0 -49.80987,79.6251 -176.31730881,138.07739 z"
       id="path1-7-1-0-9" /><path
       style="display:inline;fill:url(#linearGradient36);stroke-width:0.264999"
       d="m 31.608591,315.62924 55.0038,0.002 c 0,0 45.398569,-17.70757 89.655299,-47.76876 v -50.51947 c 0,0 -39.86249,51.52481 -144.659099,98.28664 z"
       id="path2-6-1-9-1" /><path
       style="fill:url(#linearGradient37);stroke-width:0.264999"
       d="m 107.13713,315.62049 h 69.30771 v -37.57648 c 0,0 -24.21595,20.0408 -69.30771,37.57648 z"
       id="path3-3-0-3" /><path
       style="fill:#436600;fill-opacity:1;stroke-width:0.264999"
       d="m 145.96614,315.62049 h 30.4787 v -13.36053 c 0,0 -9.18536,6.26274 -30.4787,13.36053 z"
       id="path4-8-0-5" /></g></svg>
