<?xml version="1.0" encoding="UTF-8" standalone="no"?>
<!-- Created with Inkscape (http://www.inkscape.org/) -->

<svg
   width="39.120037mm"
   height="55.932938mm"
   viewBox="0 0 147.85526 211.40009"
   version="1.1"
   id="svg1"
   xml:space="preserve"
   xmlns:xlink="http://www.w3.org/1999/xlink"
   xmlns="http://www.w3.org/2000/svg"
   xmlns:svg="http://www.w3.org/2000/svg"><defs
     id="defs1"><linearGradient
       id="linearGradient79"><stop
         style="stop-color:#00858a;stop-opacity:1;"
         offset="0"
         id="stop78" /><stop
         style="stop-color:#a0a0a0;stop-opacity:1;"
         offset="1"
         id="stop79" /></linearGradient><linearGradient
       id="linearGradient77"><stop
         style="stop-color:#00858a;stop-opacity:1;"
         offset="0"
         id="stop76" /><stop
         style="stop-color:#000000;stop-opacity:1;"
         offset="1"
         id="stop77" /></linearGradient><linearGradient
       xlink:href="#linearGradient77"
       id="linearGradient73"
       gradientUnits="userSpaceOnUse"
       gradientTransform="translate(484.37116,-250.89634)"
       x1="272.26123"
       y1="415.64471"
       x2="460.83563"
       y2="415.64471" /><linearGradient
       xlink:href="#linearGradient79"
       id="linearGradient74"
       gradientUnits="userSpaceOnUse"
       gradientTransform="matrix(0.6295082,0,0,0.71706264,-288.06043,-110.90786)"
       x1="931.4895"
       y1="589.66455"
       x2="839.96472"
       y2="378.73523" /></defs><g
     id="g9-2-4-7-7-7"
     transform="matrix(-0.37011823,0,0,0.37011823,154.48596,24.533571)"
     style="display:inline"><path
       style="display:inline;fill:#00858a;fill-opacity:1"
       d="M 545.74135,53.723821 H 945.20671 V 369.50223 c 0,0 -91.4977,-191.92186 -399.46536,-315.778409 z"
       id="path2-3-0-6-1-3"
       transform="translate(-527.82629,-120.00959)" /><path
       style="fill:url(#linearGradient73)"
       d="M 756.6324,53.723821 H 945.20671 V 275.77295 c 0,0 -49.0962,-124.97238 -188.57431,-222.049129 z"
       id="path1-1-2-3-0-3"
       transform="translate(-527.82629,-120.00959)" /><path
       style="fill:#00858a;fill-opacity:1;stroke-width:1.00157;stroke-dasharray:none"
       d="m 417.39625,504.88329 c 0,0 -52.866,-259.64259 -340.36328,-521.360911 215.34631,87.40866 340.32658,304.620161 340.32658,304.620161 z"
       id="path5-3-8-8-3-4" /><path
       style="fill:url(#linearGradient74);stroke-width:0.67186"
       d="m 417.23682,455.81465 c 0,0 -33.13377,-184.26478 -214.11563,-371.933231 135.56227,62.677491 214.23836,218.431751 214.23836,218.431751 z"
       id="path5-5-3-6-8-4-3" /></g></svg>
