<?xml version="1.0" encoding="UTF-8" standalone="no"?>
<!-- Created with Inkscape (http://www.inkscape.org/) -->

<svg
   width="65.277153mm"
   height="51.108913mm"
   viewBox="0 0 246.71681 193.16756"
   version="1.1"
   id="svg1"
   xml:space="preserve"
   xmlns:xlink="http://www.w3.org/1999/xlink"
   xmlns="http://www.w3.org/2000/svg"
   xmlns:svg="http://www.w3.org/2000/svg"><defs
     id="defs1"><linearGradient
       id="linearGradient83"><stop
         style="stop-color:#00858a;stop-opacity:1;"
         offset="0"
         id="stop82" /><stop
         style="stop-color:#000000;stop-opacity:1;"
         offset="1"
         id="stop83" /></linearGradient><linearGradient
       id="linearGradient81"><stop
         style="stop-color:#00858a;stop-opacity:1;"
         offset="0.56112856"
         id="stop80" /><stop
         style="stop-color:#000002;stop-opacity:1;"
         offset="0.66144198"
         id="stop81" /></linearGradient><linearGradient
       xlink:href="#linearGradient81"
       id="linearGradient75"
       gradientUnits="userSpaceOnUse"
       gradientTransform="matrix(1.3988722,0,0,1.3988722,779.47196,595.16126)"
       x1="213.64563"
       y1="215.25401"
       x2="252.72015"
       y2="295.36865" /><linearGradient
       xlink:href="#linearGradient83"
       id="linearGradient76"
       gradientUnits="userSpaceOnUse"
       gradientTransform="matrix(1.3988722,0,0,1.3988722,801.91376,601.81183)"
       x1="212.93333"
       y1="261.36523"
       x2="282.24103"
       y2="261.36523" /></defs><g
     id="g119"
     style="display:inline"
     transform="translate(-950.01609,-800.5584)"><path
       style="display:inline;fill:#67b9bc;fill-opacity:1;stroke-width:0.3707"
       d="m 950.01609,993.71102 119.21551,-0.0235 c 0,0 64.1672,-24.15891 127.2448,-69.13092 l 0.1851,-123.9982 c 0,0 -69.6777,111.38534 -246.64541,193.15262 z"
       id="path1-7-1-0-9-9-8" /><path
       style="display:inline;fill:url(#linearGradient75);stroke-width:0.3707"
       d="m 994.1255,993.72296 76.9433,0.003 c 0,0 63.5068,-24.77062 125.4163,-66.82239 v -70.67028 c 0,0 -55.7625,72.07663 -202.3596,137.49045 z"
       id="path2-6-1-9-1-6-0" /><path
       style="fill:url(#linearGradient76);stroke-width:0.3707"
       d="m 1099.7803,993.71072 h 96.9526 v -52.5647 c 0,0 -33.875,28.03452 -96.9526,52.5647 z"
       id="path3-3-0-3-5-8" /><path
       style="fill:#00858a;fill-opacity:1;stroke-width:0.3707"
       d="m 1154.0971,993.71072 h 42.6358 v -18.68968 c 0,0 -12.8491,8.76077 -42.6358,18.68968 z"
       id="path4-8-0-5-1-8" /></g></svg>
