<?xml version="1.0" encoding="UTF-8" standalone="no"?>
<!-- Created with Inkscape (http://www.inkscape.org/) -->

<svg
   width="65.277145mm"
   height="51.107998mm"
   viewBox="0 0 246.71678 193.1641"
   version="1.1"
   id="svg1"
   xml:space="preserve"
   xmlns:xlink="http://www.w3.org/1999/xlink"
   xmlns="http://www.w3.org/2000/svg"
   xmlns:svg="http://www.w3.org/2000/svg"><defs
     id="defs1"><linearGradient
       id="linearGradient104"><stop
         style="stop-color:#8286d5;stop-opacity:1;"
         offset="0"
         id="stop103" /><stop
         style="stop-color:#000000;stop-opacity:1;"
         offset="1"
         id="stop104" /></linearGradient><linearGradient
       id="linearGradient102"><stop
         style="stop-color:#8286d5;stop-opacity:1;"
         offset="0.56112856"
         id="stop101" /><stop
         style="stop-color:#000002;stop-opacity:1;"
         offset="0.66144198"
         id="stop102" /></linearGradient><linearGradient
       xlink:href="#linearGradient102"
       id="linearGradient96"
       gradientUnits="userSpaceOnUse"
       gradientTransform="matrix(1.3988722,0,0,1.3988722,786.74337,1085.4268)"
       x1="213.64563"
       y1="215.25401"
       x2="252.72015"
       y2="295.36865" /><linearGradient
       xlink:href="#linearGradient104"
       id="linearGradient97"
       gradientUnits="userSpaceOnUse"
       gradientTransform="matrix(1.3988722,0,0,1.3988722,809.18516,1092.0774)"
       x1="212.93333"
       y1="261.36523"
       x2="282.24103"
       y2="261.36523" /></defs><g
     id="g121"
     transform="translate(-957.28753,-1290.8245)"
     style="display:inline"><path
       style="display:inline;fill:#aeb0d5;fill-opacity:1;stroke-width:0.3707"
       d="m 957.28753,1483.9767 119.21547,-0.023 c 0,0 64.1672,-24.159 127.2448,-69.131 l 0.1851,-123.9982 c 0,0 -69.6777,111.3854 -246.64537,193.1527 z"
       id="path1-7-1-0-9-9-8-6-9" /><path
       style="display:inline;fill:url(#linearGradient96);stroke-width:0.3707"
       d="m 1001.3969,1483.9886 h 76.9433 c 0,0 63.5068,-24.7706 125.4163,-66.8224 v -70.6703 c 0,0 -55.7625,72.0766 -202.3596,137.4905 z"
       id="path2-6-1-9-1-6-0-1-7" /><path
       style="fill:url(#linearGradient97);stroke-width:0.3707"
       d="m 1107.0517,1483.9763 h 96.9526 v -52.5646 c 0,0 -33.875,28.0345 -96.9526,52.5646 z"
       id="path3-3-0-3-5-8-2-6" /><path
       style="fill:#8286d5;fill-opacity:1;stroke-width:0.3707"
       d="m 1161.3685,1483.9763 h 42.6358 v -18.6896 c 0,0 -12.8491,8.7607 -42.6358,18.6896 z"
       id="path4-8-0-5-1-8-4-2" /></g></svg>
