<?xml version="1.0" encoding="UTF-8" standalone="no"?>
<!-- Created with Inkscape (http://www.inkscape.org/) -->

<svg
   width="39.120049mm"
   height="55.932961mm"
   viewBox="0 0 147.85531 211.40017"
   version="1.1"
   id="svg1"
   xml:space="preserve"
   xmlns:xlink="http://www.w3.org/1999/xlink"
   xmlns="http://www.w3.org/2000/svg"
   xmlns:svg="http://www.w3.org/2000/svg"><defs
     id="defs1"><linearGradient
       id="linearGradient100"><stop
         style="stop-color:#8286d5;stop-opacity:1;"
         offset="0"
         id="stop99" /><stop
         style="stop-color:#a0a0a0;stop-opacity:1;"
         offset="1"
         id="stop100" /></linearGradient><linearGradient
       id="linearGradient98"><stop
         style="stop-color:#8286d5;stop-opacity:1;"
         offset="0"
         id="stop97" /><stop
         style="stop-color:#000000;stop-opacity:1;"
         offset="1"
         id="stop98" /></linearGradient><linearGradient
       xlink:href="#linearGradient100"
       id="linearGradient86-2"
       gradientUnits="userSpaceOnUse"
       gradientTransform="matrix(0.6295082,0,0,0.71706264,-288.06043,-110.90786)"
       x1="931.4895"
       y1="589.66455"
       x2="839.96472"
       y2="378.73523" /><linearGradient
       xlink:href="#linearGradient98"
       id="linearGradient95"
       gradientUnits="userSpaceOnUse"
       gradientTransform="matrix(-0.37011828,0,0,0.37011828,1127.1404,1156.0429)"
       x1="272.26123"
       y1="415.64471"
       x2="460.83563"
       y2="415.64471" /></defs><g
     id="g9-2-4-7-7-7-8-2"
     transform="matrix(-0.37011826,0,0,0.37011826,154.48597,24.533656)"
     style="display:inline"><path
       style="fill:#8286d5;fill-opacity:1;stroke-width:1.00157;stroke-dasharray:none"
       d="m 417.39625,504.88329 c 0,0 -52.866,-259.64259 -340.36328,-521.360911 215.34631,87.40866 340.32658,304.620161 340.32658,304.620161 z"
       id="path5-3-8-8-3-4-1-1" /><path
       style="fill:url(#linearGradient86-2);stroke-width:0.67186"
       d="m 417.23682,455.81465 c 0,0 -33.13377,-184.26478 -214.11563,-371.933231 135.56227,62.677491 214.23836,218.431751 214.23836,218.431751 z"
       id="path5-5-3-6-8-4-3-5-1" /><path
       style="display:inline;fill:#8286d5;fill-opacity:1;stroke-width:0.370118"
       d="M 1104.4262,1268.7884 H 956.57683 v 116.8754 c 0,0 33.8649,-71.0337 147.84937,-116.8754 z"
       id="path2-3-0-6-1-3-9-1"
       transform="matrix(-2.7018391,0,0,2.7018391,3001.8969,-3494.3481)" /><path
       style="fill:url(#linearGradient95);stroke-width:0.370118"
       d="m 1026.3716,1268.7884 h -69.79477 v 82.1845 c 0,0 18.1714,-46.2545 69.79477,-82.1845 z"
       id="path1-1-2-3-0-3-0-8"
       transform="matrix(-2.7018391,0,0,2.7018391,3001.8969,-3494.3481)" /></g></svg>
