<?xml version="1.0" encoding="UTF-8" standalone="no"?>
<!-- Created with Inkscape (http://www.inkscape.org/) -->

<svg
   width="39.120037mm"
   height="55.932941mm"
   viewBox="0 0 147.85526 211.4001"
   version="1.1"
   id="svg1"
   xml:space="preserve"
   xmlns:xlink="http://www.w3.org/1999/xlink"
   xmlns="http://www.w3.org/2000/svg"
   xmlns:svg="http://www.w3.org/2000/svg"><defs
     id="defs1"><linearGradient
       id="linearGradient111"><stop
         style="stop-color:#021233;stop-opacity:1;"
         offset="0"
         id="stop110" /><stop
         style="stop-color:#a0a0a0;stop-opacity:1;"
         offset="1"
         id="stop111" /></linearGradient><linearGradient
       id="linearGradient109"><stop
         style="stop-color:#021233;stop-opacity:1;"
         offset="0"
         id="stop108" /><stop
         style="stop-color:#000000;stop-opacity:1;"
         offset="1"
         id="stop109" /></linearGradient><linearGradient
       xlink:href="#linearGradient109"
       id="linearGradient105"
       gradientUnits="userSpaceOnUse"
       gradientTransform="matrix(-0.37011828,0,0,0.37011828,1122.8531,1389.5558)"
       x1="272.26123"
       y1="415.64471"
       x2="460.83563"
       y2="415.64471" /><linearGradient
       xlink:href="#linearGradient111"
       id="linearGradient106"
       gradientUnits="userSpaceOnUse"
       gradientTransform="matrix(0.6295082,0,0,0.71706264,-288.06043,-110.90786)"
       x1="931.4895"
       y1="589.66455"
       x2="839.96472"
       y2="378.73523" /></defs><g
     id="g9-2-4-7-7-7-8-2-2"
     transform="matrix(-0.37011825,0,0,0.37011825,154.48593,24.533624)"
     style="display:inline"><path
       style="fill:url(#linearGradient106);stroke-width:0.67186"
       d="m 417.23682,455.81465 c 0,0 -33.13377,-184.26478 -214.11563,-371.933231 135.56227,62.677491 214.23836,218.431751 214.23836,218.431751 z"
       id="path5-5-3-6-8-4-3-5-1-2"
       transform="translate(-1.1319611e-4,-1.1402514e-4)" /><path
       style="fill:#021233;fill-opacity:1;stroke-width:1.00157;stroke-dasharray:none"
       d="m 417.39625,504.88329 c 0,0 -52.866,-259.64259 -340.36328,-521.360911 215.34631,87.40866 340.32658,304.620161 340.32658,304.620161 z"
       id="path5-3-8-8-3-4-1-1-5"
       transform="translate(-1.1319611e-4,-1.1402514e-4)" /><path
       style="display:inline;fill:#021233;fill-opacity:1;stroke-width:0.370118"
       d="M 1100.1389,1502.3013 H 952.28952 v 116.8754 c 0,0 33.8649,-71.0337 147.84938,-116.8754 z"
       id="path2-3-0-6-1-3-9-1-5"
       transform="matrix(-2.7018391,0,0,2.7018391,2990.3133,-4125.2623)" /><path
       style="fill:url(#linearGradient105);stroke-width:0.370118"
       d="m 1022.0843,1502.3013 h -69.79478 v 82.1845 c 0,0 18.1714,-46.2545 69.79478,-82.1845 z"
       id="path1-1-2-3-0-3-0-8-3"
       transform="matrix(-2.7018391,0,0,2.7018391,2990.3133,-4125.2623)" /></g></svg>
